<svg viewBox="0 0 520 681" xmlns="http://www.w3.org/2000/svg">
<style>
  @keyframes fc { 0%{opacity:0} 3%{opacity:1} 84%{opacity:1} 92%{opacity:0} 100%{opacity:0} }
  @keyframes dots { 0%,30%{opacity:0.3} 50%{opacity:1} 100%{opacity:0.3} }
  @keyframes pulse { 0%,100%{opacity:0.5} 50%{opacity:1} }
  .m{opacity:0}
</style>
<rect width="520" height="681" rx="12" fill="#FFFFFF"/>
<rect width="520" height="681" rx="12" fill="none" stroke="#D0D2DC" stroke-width="0.5"/>
<g class="m" style="animation:fc 18.4s infinite;animation-delay:0.4s"><rect x="172.36000000000007" y="20" width="327.63999999999993" height="52" rx="12" fill="#F0F1F5"/><text x="186.36000000000007" y="36" font-size="11" fill="#1E2249" font-family="'Noto Sans KR',sans-serif">현대자동차 납품용 샤프트 부품 3월 단가 5% 인상안 기안서 초안</text><text x="186.36000000000007" y="54" font-size="11" fill="#1E2249" font-family="'Noto Sans KR',sans-serif">작성해줘.</text></g><g class="m" style="animation:fc 18.4s infinite;animation-delay:1.6s"><rect x="36" y="86" width="448" height="53" rx="8" fill="#eef0f7" stroke="#c5c9e0" stroke-width="0.5"/><rect x="36" y="86" width="4" height="53" rx="2" fill="#2D3561"/><svg x="50" y="92" width="14" height="14" viewBox="0 0 256 256"><path d="M208,80H176V56a48,48,0,0,0-96,0V80H48A16,16,0,0,0,32,96V208a16,16,0,0,0,16,16H208a16,16,0,0,0,16-16V96A16,16,0,0,0,208,80ZM96,56a32,32,0,0,1,64,0V80H96ZM208,208H48V96H208V208Zm-68-56a12,12,0,1,1-12-12A12,12,0,0,1,140,152Z" fill="#2D3561"/></svg><text x="70" y="102" font-size="10" fill="#2D3561" font-family="'Noto Sans KR',sans-serif" font-weight="600">RBAC 인가 확인</text><rect x="444.8" y="92" width="29.2" height="16" rx="8" fill="#22c55e" opacity="0.15"/><text x="451.8" y="103" font-size="8" fill="#22c55e" font-family="'Geist Mono',monospace" font-weight="600">통과</text><text x="50" y="118" font-size="9" fill="#5A5E7A" font-family="'Geist Mono',monospace">영업팀 · Level 4 · 단가 조회 및 기안 작성 권한 승인</text></g><g class="m" style="animation:fc 1.5s infinite 18.4s;animation-delay:2.4s;animation-duration:1.5s;animation-iteration-count:infinite;animation-timing-function:ease"></g><g class="m" style="animation:fc 18.4s infinite;animation-delay:2.4s"><circle cx="32" cy="167" r="12" fill="#2D3561"/><text x="27" y="171" font-size="9" fill="#FFFFFF" font-family="sans-serif" font-weight="700">K</text><circle cx="56" cy="167" r="2.5" fill="#5A5E7A" style="animation:dots 0.8s infinite"/><circle cx="66" cy="167" r="2.5" fill="#5A5E7A" style="animation:dots 0.8s 0.15s infinite"/><circle cx="76" cy="167" r="2.5" fill="#5A5E7A" style="animation:dots 0.8s 0.3s infinite"/></g><g class="m" style="animation:fc 18.4s infinite;animation-delay:3.6s"><circle cx="32" cy="167" r="12" fill="#2D3561"/><text x="27" y="171" font-size="9" fill="#FFFFFF" font-family="sans-serif" font-weight="700">K</text><rect x="52" y="153" width="448" height="120" rx="10" fill="#FFFFFF" stroke="#D0D2DC" stroke-width="0.5"/><text x="60" y="169" font-size="11" fill="#1E2249" font-family="'Noto Sans KR',sans-serif">위하고 결재 양식에 맞추어 단가 인상 기안서 초안을 작성했습니다.</text><text x="60" y="197" font-size="10" fill="#5A5E7A" font-family="'Noto Sans KR',sans-serif">•</text><text x="74" y="197" font-size="10" fill="#1E2249" font-family="'Noto Sans KR',sans-serif" font-weight="600">품목</text><text x="96" y="197" font-size="10" fill="#5A5E7A" font-family="'Noto Sans KR',sans-serif">: 드라이브 샤프트 (DS-2026)</text><text x="60" y="213" font-size="10" fill="#5A5E7A" font-family="'Noto Sans KR',sans-serif">•</text><text x="74" y="213" font-size="10" fill="#1E2249" font-family="'Noto Sans KR',sans-serif" font-weight="600">기존 단가</text><text x="118" y="213" font-size="10" fill="#5A5E7A" font-family="'Noto Sans KR',sans-serif">: ₩45,000</text><text x="60" y="229" font-size="10" fill="#5A5E7A" font-family="'Noto Sans KR',sans-serif">•</text><text x="74" y="229" font-size="10" fill="#1E2249" font-family="'Noto Sans KR',sans-serif" font-weight="600">변경 단가</text><text x="118" y="229" font-size="10" fill="#5A5E7A" font-family="'Noto Sans KR',sans-serif">: ₩47,250 (5% 인상)</text><text x="60" y="245" font-size="10" fill="#5A5E7A" font-family="'Noto Sans KR',sans-serif">•</text><text x="74" y="245" font-size="10" fill="#1E2249" font-family="'Noto Sans KR',sans-serif" font-weight="600">적용일</text><text x="105.5" y="245" font-size="10" fill="#5A5E7A" font-family="'Noto Sans KR',sans-serif">: 2026년 3월 1일</text></g><g class="m" style="animation:fc 18.4s infinite;animation-delay:5.4s"><rect x="188.6400000000001" y="287" width="311.3599999999999" height="34" rx="12" fill="#F0F1F5"/><text x="202.6400000000001" y="303" font-size="11" fill="#1E2249" font-family="'Noto Sans KR',sans-serif">내용 좋아. 위하고에서 영업본부장님 최종 결재로 상신해줘.</text></g><g class="m" style="animation:fc 18.4s infinite;animation-delay:6.6s"><rect x="36" y="335" width="448" height="85" rx="8" fill="#fefce8" stroke="#fef08a" stroke-width="0.5"/><rect x="36" y="335" width="4" height="85" rx="2" fill="#C4875B"/><svg x="50" y="341" width="14" height="14" viewBox="0 0 256 256"><path d="M236.8,188.09,149.35,36.22h0a24.76,24.76,0,0,0-42.7,0L19.2,188.09a23.51,23.51,0,0,0,0,23.72A24.35,24.35,0,0,0,40.55,224h174.9a24.35,24.35,0,0,0,21.33-12.19A23.51,23.51,0,0,0,236.8,188.09ZM222.93,203.8a8.5,8.5,0,0,1-7.48,4.2H40.55a8.5,8.5,0,0,1-7.48-4.2,7.59,7.59,0,0,1,0-7.72L120.52,44.21a8.75,8.75,0,0,1,15,0l87.45,151.87A7.59,7.59,0,0,1,222.93,203.8ZM120,144V104a8,8,0,0,1,16,0v40a8,8,0,0,1-16,0Zm20,36a12,12,0,1,1-12-12A12,12,0,0,1,140,180Z" fill="#C4875B"/></svg><text x="70" y="351" font-size="10" fill="#C4875B" font-family="'Noto Sans KR',sans-serif" font-weight="600">단가 변경 감지</text><rect x="444.8" y="341" width="29.2" height="16" rx="8" fill="#eab308" opacity="0.15"/><text x="451.8" y="352" font-size="8" fill="#eab308" font-family="'Geist Mono',monospace" font-weight="600">대기</text><text x="50" y="367" font-size="9" fill="#5A5E7A" font-family="'Geist Mono',monospace">주요 고객사 단가 변경 건 · 본부장 사전 승인 필요</text><rect x="50" y="386" width="56.89999999999999" height="22" rx="6" fill="#C4875B"/><text x="60" y="400" font-size="9" fill="#FFFFFF" font-family="'Noto Sans KR',sans-serif" font-weight="500">기안 상신</text><rect x="114.89999999999999" y="386" width="56.89999999999999" height="22" rx="6" fill="#FFFFFF" stroke="#fef08a" stroke-width="0.5"/><text x="124.89999999999999" y="400" font-size="9" fill="#5A5E7A" font-family="'Noto Sans KR',sans-serif">상신 취소</text></g><g class="m" style="animation:fc 18.4s infinite;animation-delay:7.4s"><rect x="426.9" y="432" width="73.1" height="34" rx="12" fill="#F0F1F5"/><text x="440.9" y="448" font-size="11" fill="#1E2249" font-family="'Noto Sans KR',sans-serif">기안 상신</text></g><g class="m" style="animation:fc 18.4s infinite;animation-delay:8.6s"><rect x="36" y="480" width="448" height="53" rx="8" fill="#f5f5f7" stroke="#dddee5" stroke-width="0.5"/><rect x="36" y="480" width="4" height="53" rx="2" fill="#5A5E7A"/><svg x="50" y="486" width="14" height="14" viewBox="0 0 256 256"><path d="M168,152a8,8,0,0,1-8,8H96a8,8,0,0,1,0-16h64A8,8,0,0,1,168,152Zm-8-40H96a8,8,0,0,0,0,16h64a8,8,0,0,0,0-16Zm56-64V216a16,16,0,0,1-16,16H56a16,16,0,0,1-16-16V48A16,16,0,0,1,56,32H92.26a47.92,47.92,0,0,1,71.48,0H200A16,16,0,0,1,216,48ZM96,64h64a32,32,0,0,0-64,0ZM200,48H173.25A47.93,47.93,0,0,1,176,64v8a8,8,0,0,1-8,8H88a8,8,0,0,1-8-8V64a47.93,47.93,0,0,1,2.75-16H56V216H200Z" fill="#5A5E7A"/></svg><text x="70" y="496" font-size="10" fill="#5A5E7A" font-family="'Noto Sans KR',sans-serif" font-weight="600">감사 로그 기록</text><rect x="444.8" y="486" width="29.2" height="16" rx="8" fill="#22c55e" opacity="0.15"/><text x="451.8" y="497" font-size="8" fill="#22c55e" font-family="'Geist Mono',monospace" font-weight="600">통과</text><text x="50" y="512" font-size="9" fill="#5A5E7A" font-family="'Geist Mono',monospace">APP-2026-0225-045 · 위하고 전자결재 상신 완료</text></g><g class="m" style="animation:fc 1.5s infinite 18.4s;animation-delay:9.4s;animation-duration:1.5s;animation-iteration-count:infinite;animation-timing-function:ease"></g><g class="m" style="animation:fc 18.4s infinite;animation-delay:9.4s"><circle cx="32" cy="561" r="12" fill="#2D3561"/><text x="27" y="565" font-size="9" fill="#FFFFFF" font-family="sans-serif" font-weight="700">K</text><circle cx="56" cy="561" r="2.5" fill="#5A5E7A" style="animation:dots 0.8s infinite"/><circle cx="66" cy="561" r="2.5" fill="#5A5E7A" style="animation:dots 0.8s 0.15s infinite"/><circle cx="76" cy="561" r="2.5" fill="#5A5E7A" style="animation:dots 0.8s 0.3s infinite"/></g><g class="m" style="animation:fc 18.4s infinite;animation-delay:10.6s"><circle cx="32" cy="561" r="12" fill="#2D3561"/><text x="27" y="565" font-size="9" fill="#FFFFFF" font-family="sans-serif" font-weight="700">K</text><rect x="52" y="547" width="448" height="64" rx="10" fill="#FFFFFF" stroke="#D0D2DC" stroke-width="0.5"/><text x="60" y="563" font-size="11" fill="#1E2249" font-family="'Noto Sans KR',sans-serif">영업본부장님을 최종 결재자로 지정하여 위하고 전자결재 상신을 완료했습니다.</text><text x="60" y="581" font-size="11" fill="#1E2249" font-family="'Noto Sans KR',sans-serif">결재 문서 번호: APP-2026-0225-045</text></g><g class="m" style="animation:fc 18.4s infinite;animation-delay:12.9s"><rect x="20" y="629" width="480" height="32" rx="6" fill="#F0F1F5"/><text x="32" y="649" font-size="8" fill="#5A5E7A" font-family="'Geist Mono',monospace">erp_price_lookup → generate_draft → wehago_approval</text></g></svg>