<svg viewBox="0 0 520 593" xmlns="http://www.w3.org/2000/svg">
<style>
  @keyframes fc { 0%{opacity:0} 3%{opacity:1} 83%{opacity:1} 91%{opacity:0} 100%{opacity:0} }
  @keyframes dots { 0%,30%{opacity:0.3} 50%{opacity:1} 100%{opacity:0.3} }
  @keyframes pulse { 0%,100%{opacity:0.5} 50%{opacity:1} }
  .m{opacity:0}
</style>
<rect width="520" height="593" rx="12" fill="#FFFFFF"/>
<rect width="520" height="593" rx="12" fill="none" stroke="#D0D2DC" stroke-width="0.5"/>
<g class="m" style="animation:fc 17.200000000000003s infinite;animation-delay:0.4s"><rect x="183.80000000000013" y="20" width="316.1999999999999" height="34" rx="12" fill="#F0F1F5"/><text x="197.80000000000013" y="36" font-size="11" fill="#1E2249" font-family="'Noto Sans KR',sans-serif">최근 1개월간 접수된 B2B 고객 클레임 내역 엑셀로 추출해줘.</text></g><g class="m" style="animation:fc 17.200000000000003s infinite;animation-delay:1.6s"><rect x="36" y="68" width="448" height="53" rx="8" fill="#fef7f0" stroke="#f0d5bc" stroke-width="0.5"/><rect x="36" y="68" width="4" height="53" rx="2" fill="#C4875B"/><svg x="50" y="74" width="14" height="14" viewBox="0 0 256 256"><path d="M208,40H48A16,16,0,0,0,32,56v56c0,52.72,25.52,84.67,46.93,102.19,23.06,18.86,46,25.26,47,25.53a8,8,0,0,0,4.2,0c1-.27,23.91-6.67,47-25.53C198.48,196.67,224,164.72,224,112V56A16,16,0,0,0,208,40Zm0,72c0,37.07-13.66,67.16-40.6,89.42A129.3,129.3,0,0,1,128,223.62a128.25,128.25,0,0,1-38.92-21.81C61.82,179.51,48,149.3,48,112l0-56,160,0ZM82.34,141.66a8,8,0,0,1,11.32-11.32L112,148.69l50.34-50.35a8,8,0,0,1,11.32,11.32l-56,56a8,8,0,0,1-11.32,0Z" fill="#C4875B"/></svg><text x="70" y="84" font-size="10" fill="#C4875B" font-family="'Noto Sans KR',sans-serif" font-weight="600">개인/기업정보 감지</text><rect x="437.2" y="74" width="36.8" height="16" rx="8" fill="#C4875B" opacity="0.15"/><text x="444.2" y="85" font-size="8" fill="#C4875B" font-family="'Geist Mono',monospace" font-weight="600">마스킹</text><text x="50" y="100" font-size="9" fill="#5A5E7A" font-family="'Geist Mono',monospace">담당자명 14건, 연락처 14건 자동 마스킹 처리</text></g><g class="m" style="animation:fc 1.5s infinite 17.200000000000003s;animation-delay:2.4s;animation-duration:1.5s;animation-iteration-count:infinite;animation-timing-function:ease"></g><g class="m" style="animation:fc 17.200000000000003s infinite;animation-delay:2.4s"><circle cx="32" cy="149" r="12" fill="#2D3561"/><text x="27" y="153" font-size="9" fill="#FFFFFF" font-family="sans-serif" font-weight="700">K</text><circle cx="56" cy="149" r="2.5" fill="#5A5E7A" style="animation:dots 0.8s infinite"/><circle cx="66" cy="149" r="2.5" fill="#5A5E7A" style="animation:dots 0.8s 0.15s infinite"/><circle cx="76" cy="149" r="2.5" fill="#5A5E7A" style="animation:dots 0.8s 0.3s infinite"/></g><g class="m" style="animation:fc 17.200000000000003s infinite;animation-delay:3.6s"><circle cx="32" cy="149" r="12" fill="#2D3561"/><text x="27" y="153" font-size="9" fill="#FFFFFF" font-family="sans-serif" font-weight="700">K</text><rect x="52" y="135" width="448" height="110" rx="10" fill="#FFFFFF" stroke="#D0D2DC" stroke-width="0.5"/><text x="60" y="151" font-size="11" fill="#1E2249" font-family="'Noto Sans KR',sans-serif">클레임 내역을 추출했습니다. 개인정보보호법에 따라 일부 정보가 마스킹 되었습니다.</text><rect x="58" y="167" width="428" height="16" rx="2" fill="#F0F1F5"/><text x="60" y="179" font-size="9.5" fill="#1E2249" font-family="'Geist Mono',monospace" font-weight="600">접수일</text><text x="144" y="179" font-size="9.5" fill="#1E2249" font-family="'Geist Mono',monospace" font-weight="600">고객사</text><text x="228" y="179" font-size="9.5" fill="#1E2249" font-family="'Geist Mono',monospace" font-weight="600">담당자</text><text x="312" y="179" font-size="9.5" fill="#1E2249" font-family="'Geist Mono',monospace" font-weight="600">연락처</text><text x="396" y="179" font-size="9.5" fill="#1E2249" font-family="'Geist Mono',monospace" font-weight="600">클레임 유형</text><line x1="60" y1="195" x2="484" y2="195" stroke="#D0D2DC" stroke-width="0.5"/><text x="60" y="201" font-size="9.5" fill="#5A5E7A" font-family="'Geist Mono',monospace" >02/15</text><text x="144" y="201" font-size="9.5" fill="#5A5E7A" font-family="'Geist Mono',monospace" >㈜에이치모터스</text><text x="228" y="201" font-size="9.5" fill="#5A5E7A" font-family="'Geist Mono',monospace" >김**</text><text x="312" y="201" font-size="9.5" fill="#5A5E7A" font-family="'Noto Sans KR',sans-serif">010--1234</text><text x="396" y="201" font-size="9.5" fill="#5A5E7A" font-family="'Geist Mono',monospace" >규격 불량</text><text x="60" y="217" font-size="9.5" fill="#5A5E7A" font-family="'Geist Mono',monospace" >02/18</text><text x="144" y="217" font-size="9.5" fill="#5A5E7A" font-family="'Geist Mono',monospace" >티에스오토</text><text x="228" y="217" font-size="9.5" fill="#5A5E7A" font-family="'Geist Mono',monospace" >이**</text><text x="312" y="217" font-size="9.5" fill="#5A5E7A" font-family="'Noto Sans KR',sans-serif">010--5678</text><text x="396" y="217" font-size="9.5" fill="#5A5E7A" font-family="'Geist Mono',monospace" >포장 파손</text></g><g class="m" style="animation:fc 17.200000000000003s infinite;animation-delay:5.4s"><rect x="185.3400000000001" y="259" width="314.6599999999999" height="52" rx="12" fill="#F0F1F5"/><text x="199.3400000000001" y="275" font-size="11" fill="#1E2249" font-family="'Noto Sans KR',sans-serif">규격 불량 건들만 모아서 위하고에 '개선대책 수립' 태스크로</text><text x="199.3400000000001" y="293" font-size="11" fill="#1E2249" font-family="'Noto Sans KR',sans-serif">등록해줘.</text></g><g class="m" style="animation:fc 17.200000000000003s infinite;animation-delay:6.6s"><rect x="36" y="325" width="448" height="53" rx="8" fill="#f0fdf4" stroke="#bbf7d0" stroke-width="0.5"/><rect x="36" y="325" width="4" height="53" rx="2" fill="#22c55e"/><svg x="50" y="331" width="14" height="14" viewBox="0 0 256 256"><path d="M173.66,98.34a8,8,0,0,1,0,11.32l-56,56a8,8,0,0,1-11.32,0l-24-24a8,8,0,0,1,11.32-11.32L112,148.69l50.34-50.35A8,8,0,0,1,173.66,98.34ZM232,128A104,104,0,1,1,128,24,104.11,104.11,0,0,1,232,128Zm-16,0a88,88,0,1,0-88,88A88.1,88.1,0,0,0,216,128Z" fill="#22c55e"/></svg><text x="70" y="341" font-size="10" fill="#22c55e" font-family="'Noto Sans KR',sans-serif" font-weight="600">데이터 무결성 검증</text><rect x="444.8" y="331" width="29.2" height="16" rx="8" fill="#22c55e" opacity="0.15"/><text x="451.8" y="342" font-size="8" fill="#22c55e" font-family="'Geist Mono',monospace" font-weight="600">통과</text><text x="50" y="357" font-size="9" fill="#5A5E7A" font-family="'Geist Mono',monospace">ERP 품질모듈 접수건 ↔ CRM 클레임 건수 (총 4건) 교차 검증 일치</text></g><g class="m" style="animation:fc 17.200000000000003s infinite;animation-delay:7.4s"><rect x="36" y="392" width="448" height="53" rx="8" fill="#f5f5f7" stroke="#dddee5" stroke-width="0.5"/><rect x="36" y="392" width="4" height="53" rx="2" fill="#5A5E7A"/><svg x="50" y="398" width="14" height="14" viewBox="0 0 256 256"><path d="M168,152a8,8,0,0,1-8,8H96a8,8,0,0,1,0-16h64A8,8,0,0,1,168,152Zm-8-40H96a8,8,0,0,0,0,16h64a8,8,0,0,0,0-16Zm56-64V216a16,16,0,0,1-16,16H56a16,16,0,0,1-16-16V48A16,16,0,0,1,56,32H92.26a47.92,47.92,0,0,1,71.48,0H200A16,16,0,0,1,216,48ZM96,64h64a32,32,0,0,0-64,0ZM200,48H173.25A47.93,47.93,0,0,1,176,64v8a8,8,0,0,1-8,8H88a8,8,0,0,1-8-8V64a47.93,47.93,0,0,1,2.75-16H56V216H200Z" fill="#5A5E7A"/></svg><text x="70" y="408" font-size="10" fill="#5A5E7A" font-family="'Noto Sans KR',sans-serif" font-weight="600">감사 로그 기록</text><rect x="444.8" y="398" width="29.2" height="16" rx="8" fill="#22c55e" opacity="0.15"/><text x="451.8" y="409" font-size="8" fill="#22c55e" font-family="'Geist Mono',monospace" font-weight="600">통과</text><text x="50" y="424" font-size="9" fill="#5A5E7A" font-family="'Geist Mono',monospace">TSK-2026-0225-088 · 위하고 태스크 일괄 등록 완료</text></g><g class="m" style="animation:fc 1.5s infinite 17.200000000000003s;animation-delay:8.2s;animation-duration:1.5s;animation-iteration-count:infinite;animation-timing-function:ease"></g><g class="m" style="animation:fc 17.200000000000003s infinite;animation-delay:8.2s"><circle cx="32" cy="473" r="12" fill="#2D3561"/><text x="27" y="477" font-size="9" fill="#FFFFFF" font-family="sans-serif" font-weight="700">K</text><circle cx="56" cy="473" r="2.5" fill="#5A5E7A" style="animation:dots 0.8s infinite"/><circle cx="66" cy="473" r="2.5" fill="#5A5E7A" style="animation:dots 0.8s 0.15s infinite"/><circle cx="76" cy="473" r="2.5" fill="#5A5E7A" style="animation:dots 0.8s 0.3s infinite"/></g><g class="m" style="animation:fc 17.200000000000003s infinite;animation-delay:9.4s"><circle cx="32" cy="473" r="12" fill="#2D3561"/><text x="27" y="477" font-size="9" fill="#FFFFFF" font-family="sans-serif" font-weight="700">K</text><rect x="52" y="459" width="448" height="64" rx="10" fill="#FFFFFF" stroke="#D0D2DC" stroke-width="0.5"/><text x="60" y="475" font-size="11" fill="#1E2249" font-family="'Noto Sans KR',sans-serif">규격 불량 4건에 대해 위하고 '품질개선 프로젝트' 보드에 태스크 등록을 완료했습니다.</text><text x="60" y="493" font-size="11" fill="#1E2249" font-family="'Noto Sans KR',sans-serif">관련 담당자(생산기술팀)가 자동으로 할당되었습니다.</text></g><g class="m" style="animation:fc 17.200000000000003s infinite;animation-delay:11.7s"><rect x="20" y="541" width="480" height="32" rx="6" fill="#F0F1F5"/><text x="32" y="561" font-size="8" fill="#5A5E7A" font-family="'Geist Mono',monospace">crm_query → pii_filter → wehago_task_create</text></g></svg>