<svg viewBox="0 0 520 657" xmlns="http://www.w3.org/2000/svg">
<style>
  @keyframes fc { 0%{opacity:0} 3%{opacity:1} 83%{opacity:1} 91%{opacity:0} 100%{opacity:0} }
  @keyframes dots { 0%,30%{opacity:0.3} 50%{opacity:1} 100%{opacity:0.3} }
  @keyframes pulse { 0%,100%{opacity:0.5} 50%{opacity:1} }
  .m{opacity:0}
</style>
<rect width="520" height="657" rx="12" fill="#FFFFFF"/>
<rect width="520" height="657" rx="12" fill="none" stroke="#D0D2DC" stroke-width="0.5"/>
<g class="m" style="animation:fc 17.200000000000003s infinite;animation-delay:0.4s"><rect x="167.5200000000001" y="20" width="332.4799999999999" height="52" rx="12" fill="#F0F1F5"/><text x="181.5200000000001" y="36" font-size="11" fill="#1E2249" font-family="'Noto Sans KR',sans-serif">어제 접대비로 쓴 영수증 이미지 첨부할게. 확인해서 더존에 매입</text><text x="181.5200000000001" y="54" font-size="11" fill="#1E2249" font-family="'Noto Sans KR',sans-serif">전표 입력해줘.</text></g><g class="m" style="animation:fc 17.200000000000003s infinite;animation-delay:1.6s"><rect x="36" y="86" width="448" height="53" rx="8" fill="#eef0f7" stroke="#c5c9e0" stroke-width="0.5"/><rect x="36" y="86" width="4" height="53" rx="2" fill="#2D3561"/><svg x="50" y="92" width="14" height="14" viewBox="0 0 256 256"><path d="M208,80H176V56a48,48,0,0,0-96,0V80H48A16,16,0,0,0,32,96V208a16,16,0,0,0,16,16H208a16,16,0,0,0,16-16V96A16,16,0,0,0,208,80ZM96,56a32,32,0,0,1,64,0V80H96ZM208,208H48V96H208V208Zm-68-56a12,12,0,1,1-12-12A12,12,0,0,1,140,152Z" fill="#2D3561"/></svg><text x="70" y="102" font-size="10" fill="#2D3561" font-family="'Noto Sans KR',sans-serif" font-weight="600">RBAC 인가 확인</text><rect x="444.8" y="92" width="29.2" height="16" rx="8" fill="#22c55e" opacity="0.15"/><text x="451.8" y="103" font-size="8" fill="#22c55e" font-family="'Geist Mono',monospace" font-weight="600">통과</text><text x="50" y="118" font-size="9" fill="#5A5E7A" font-family="'Geist Mono',monospace">재무팀 · Level 4 · 전표 생성 및 수정 권한 승인</text></g><g class="m" style="animation:fc 17.200000000000003s infinite;animation-delay:2.4s"><rect x="36" y="153" width="448" height="53" rx="8" fill="#fefce8" stroke="#fef08a" stroke-width="0.5"/><rect x="36" y="153" width="4" height="53" rx="2" fill="#eab308"/><svg x="50" y="159" width="14" height="14" viewBox="0 0 256 256"><path d="M215.79,118.17a8,8,0,0,0-5-5.66L153.18,90.9l14.66-73.33a8,8,0,0,0-13.69-7l-112,120a8,8,0,0,0,3,13l57.63,21.61L88.16,238.43a8,8,0,0,0,13.69,7l112-120A8,8,0,0,0,215.79,118.17ZM109.37,214l10.47-52.38a8,8,0,0,0-5-9.06L62,132.71l84.62-90.66L136.16,94.43a8,8,0,0,0,5,9.06l52.8,19.8Z" fill="#eab308"/></svg><text x="70" y="169" font-size="10" fill="#eab308" font-family="'Noto Sans KR',sans-serif" font-weight="600">AI 신뢰도 경고</text><rect x="444.8" y="159" width="29.2" height="16" rx="8" fill="#eab308" opacity="0.15"/><text x="451.8" y="170" font-size="8" fill="#eab308" font-family="'Geist Mono',monospace" font-weight="600">대기</text><text x="50" y="185" font-size="9" fill="#5A5E7A" font-family="'Geist Mono',monospace">신뢰도 72% · 임계값(85%) 미만 · 금액 부분 OCR 인식 불확실</text></g><g class="m" style="animation:fc 1.5s infinite 17.200000000000003s;animation-delay:3.2s;animation-duration:1.5s;animation-iteration-count:infinite;animation-timing-function:ease"></g><g class="m" style="animation:fc 17.200000000000003s infinite;animation-delay:3.2s"><circle cx="32" cy="234" r="12" fill="#2D3561"/><text x="27" y="238" font-size="9" fill="#FFFFFF" font-family="sans-serif" font-weight="700">K</text><circle cx="56" cy="234" r="2.5" fill="#5A5E7A" style="animation:dots 0.8s infinite"/><circle cx="66" cy="234" r="2.5" fill="#5A5E7A" style="animation:dots 0.8s 0.15s infinite"/><circle cx="76" cy="234" r="2.5" fill="#5A5E7A" style="animation:dots 0.8s 0.3s infinite"/></g><g class="m" style="animation:fc 17.200000000000003s infinite;animation-delay:4.4s"><circle cx="32" cy="234" r="12" fill="#2D3561"/><text x="27" y="238" font-size="9" fill="#FFFFFF" font-family="sans-serif" font-weight="700">K</text><rect x="52" y="220" width="448" height="150" rx="10" fill="#FFFFFF" stroke="#D0D2DC" stroke-width="0.5"/><text x="60" y="236" font-size="11" fill="#1E2249" font-family="'Noto Sans KR',sans-serif">영수증 이미지를 분석했으나 일부 항목의 인식이 불확실합니다.</text><text x="60" y="264" font-size="11" fill="#1E2249" font-family="'Noto Sans KR',sans-serif" font-weight="600">인식된 데이터</text><text x="60" y="282" font-size="10" fill="#5A5E7A" font-family="'Noto Sans KR',sans-serif">•</text><text x="74" y="282" font-size="10" fill="#5A5E7A" font-family="'Noto Sans KR',sans-serif">사용처: 삼원가든</text><text x="60" y="298" font-size="10" fill="#5A5E7A" font-family="'Noto Sans KR',sans-serif">•</text><text x="74" y="298" font-size="10" fill="#5A5E7A" font-family="'Noto Sans KR',sans-serif">일시: 2026-02-24 19:30</text><text x="60" y="314" font-size="10" fill="#5A5E7A" font-family="'Noto Sans KR',sans-serif">•</text><text x="74" y="314" font-size="10" fill="#5A5E7A" font-family="'Noto Sans KR',sans-serif">금액: ₩1*5,000 (145,000원 또는 195,000원으로 추정)</text><text x="60" y="340" font-size="11" fill="#1E2249" font-family="'Noto Sans KR',sans-serif">정확한 결제 금액을 입력해주시면 전표 생성을 진행하겠습니다.</text></g><g class="m" style="animation:fc 17.200000000000003s infinite;animation-delay:6.2s"><rect x="334.83000000000004" y="384" width="165.17" height="34" rx="12" fill="#F0F1F5"/><text x="348.83000000000004" y="400" font-size="11" fill="#1E2249" font-family="'Noto Sans KR',sans-serif">145,000원 맞아. 처리해줘.</text></g><g class="m" style="animation:fc 17.200000000000003s infinite;animation-delay:7.4s"><rect x="36" y="432" width="448" height="53" rx="8" fill="#f5f5f7" stroke="#dddee5" stroke-width="0.5"/><rect x="36" y="432" width="4" height="53" rx="2" fill="#5A5E7A"/><svg x="50" y="438" width="14" height="14" viewBox="0 0 256 256"><path d="M168,152a8,8,0,0,1-8,8H96a8,8,0,0,1,0-16h64A8,8,0,0,1,168,152Zm-8-40H96a8,8,0,0,0,0,16h64a8,8,0,0,0,0-16Zm56-64V216a16,16,0,0,1-16,16H56a16,16,0,0,1-16-16V48A16,16,0,0,1,56,32H92.26a47.92,47.92,0,0,1,71.48,0H200A16,16,0,0,1,216,48ZM96,64h64a32,32,0,0,0-64,0ZM200,48H173.25A47.93,47.93,0,0,1,176,64v8a8,8,0,0,1-8,8H88a8,8,0,0,1-8-8V64a47.93,47.93,0,0,1,2.75-16H56V216H200Z" fill="#5A5E7A"/></svg><text x="70" y="448" font-size="10" fill="#5A5E7A" font-family="'Noto Sans KR',sans-serif" font-weight="600">감사 로그 기록</text><rect x="444.8" y="438" width="29.2" height="16" rx="8" fill="#22c55e" opacity="0.15"/><text x="451.8" y="449" font-size="8" fill="#22c55e" font-family="'Geist Mono',monospace" font-weight="600">통과</text><text x="50" y="464" font-size="9" fill="#5A5E7A" font-family="'Geist Mono',monospace">TX-2026-0225-102 · 수동 보정 금액(145,000) 반영 · 전표 생성 완료</text></g><g class="m" style="animation:fc 1.5s infinite 17.200000000000003s;animation-delay:8.2s;animation-duration:1.5s;animation-iteration-count:infinite;animation-timing-function:ease"></g><g class="m" style="animation:fc 17.200000000000003s infinite;animation-delay:8.2s"><circle cx="32" cy="513" r="12" fill="#2D3561"/><text x="27" y="517" font-size="9" fill="#FFFFFF" font-family="sans-serif" font-weight="700">K</text><circle cx="56" cy="513" r="2.5" fill="#5A5E7A" style="animation:dots 0.8s infinite"/><circle cx="66" cy="513" r="2.5" fill="#5A5E7A" style="animation:dots 0.8s 0.15s infinite"/><circle cx="76" cy="513" r="2.5" fill="#5A5E7A" style="animation:dots 0.8s 0.3s infinite"/></g><g class="m" style="animation:fc 17.200000000000003s infinite;animation-delay:9.4s"><circle cx="32" cy="513" r="12" fill="#2D3561"/><text x="27" y="517" font-size="9" fill="#FFFFFF" font-family="sans-serif" font-weight="700">K</text><rect x="52" y="499" width="448" height="88" rx="10" fill="#FFFFFF" stroke="#D0D2DC" stroke-width="0.5"/><text x="60" y="515" font-size="11" fill="#1E2249" font-family="'Noto Sans KR',sans-serif">확인 감사합니다. 더존 ERP에 매입 전표 입력을 완료했습니다.</text><text x="60" y="543" font-size="10" fill="#5A5E7A" font-family="'Noto Sans KR',sans-serif">•</text><text x="74" y="543" font-size="10" fill="#1E2249" font-family="'Noto Sans KR',sans-serif" font-weight="600">전표번호</text><text x="115" y="543" font-size="10" fill="#5A5E7A" font-family="'Noto Sans KR',sans-serif">: 20260225-M-0042</text><text x="60" y="559" font-size="10" fill="#5A5E7A" font-family="'Noto Sans KR',sans-serif">•</text><text x="74" y="559" font-size="10" fill="#1E2249" font-family="'Noto Sans KR',sans-serif" font-weight="600">계정과목</text><text x="115" y="559" font-size="10" fill="#5A5E7A" font-family="'Noto Sans KR',sans-serif">: 접대비(813)</text></g><g class="m" style="animation:fc 17.200000000000003s infinite;animation-delay:11.7s"><rect x="20" y="605" width="480" height="32" rx="6" fill="#F0F1F5"/><text x="32" y="625" font-size="8" fill="#5A5E7A" font-family="'Geist Mono',monospace">ocr_image_parse → erp_create_voucher</text></g></svg>