<svg viewBox="0 0 520 737" xmlns="http://www.w3.org/2000/svg">
<style>
  @keyframes fc { 0%{opacity:0} 3%{opacity:1} 84%{opacity:1} 92%{opacity:0} 100%{opacity:0} }
  @keyframes dots { 0%,30%{opacity:0.3} 50%{opacity:1} 100%{opacity:0.3} }
  @keyframes pulse { 0%,100%{opacity:0.5} 50%{opacity:1} }
  .m{opacity:1}
</style>
<rect width="520" height="737" rx="12" fill="#FFFFFF"/>
<rect width="520" height="737" rx="12" fill="none" stroke="#D0D2DC" stroke-width="0.5"/>
<g class="m" style="animation:none;animation-delay:0.4s"><rect x="179.73000000000008" y="20" width="320.2699999999999" height="52" rx="12" fill="#F0F1F5"/><text x="193.73000000000008" y="36" font-size="11" fill="#1E2249" font-family="'Noto Sans KR',sans-serif">오늘 H물산이랑 단체 상해보험 30억 계약 체결했어. 관련 내용</text><text x="193.73000000000008" y="54" font-size="11" fill="#1E2249" font-family="'Noto Sans KR',sans-serif">영업본부 위하고 그룹방에 공지글 써줘.</text></g><g class="m" style="animation:none;animation-delay:1.6s"><rect x="36" y="86" width="448" height="53" rx="8" fill="#eef0f7" stroke="#c5c9e0" stroke-width="0.5"/><rect x="36" y="86" width="4" height="53" rx="2" fill="#2D3561"/><svg x="50" y="92" width="14" height="14" viewBox="0 0 256 256"><path d="M208,80H176V56a48,48,0,0,0-96,0V80H48A16,16,0,0,0,32,96V208a16,16,0,0,0,16,16H208a16,16,0,0,0,16-16V96A16,16,0,0,0,208,80ZM96,56a32,32,0,0,1,64,0V80H96ZM208,208H48V96H208V208Zm-68-56a12,12,0,1,1-12-12A12,12,0,0,1,140,152Z" fill="#2D3561"/></svg><text x="70" y="102" font-size="10" fill="#2D3561" font-family="'Noto Sans KR',sans-serif" font-weight="600">RBAC 인가 확인</text><rect x="444.8" y="92" width="29.2" height="16" rx="8" fill="#22c55e" opacity="0.15"/><text x="451.8" y="103" font-size="8" fill="#22c55e" font-family="'Geist Mono',monospace" font-weight="600">통과</text><text x="50" y="118" font-size="9" fill="#5A5E7A" font-family="'Geist Mono',monospace">법인영업팀 · Level 4 · 영업 실적 등록 및 공지 권한 승인</text></g><g class="m" style="animation:none;animation-delay:2.4s;animation-duration:1.5s;animation-iteration-count:infinite;animation-timing-function:ease"></g><g class="m" style="animation:none;animation-delay:2.4s"><circle cx="32" cy="167" r="12" fill="#2D3561"/><text x="27" y="171" font-size="9" fill="#FFFFFF" font-family="sans-serif" font-weight="700">K</text><circle cx="56" cy="167" r="2.5" fill="#5A5E7A" style="animation:none"/><circle cx="66" cy="167" r="2.5" fill="#5A5E7A" style="animation:none"/><circle cx="76" cy="167" r="2.5" fill="#5A5E7A" style="animation:none"/></g><g class="m" style="animation:none;animation-delay:3.6s"><circle cx="32" cy="167" r="12" fill="#2D3561"/><text x="27" y="171" font-size="9" fill="#FFFFFF" font-family="sans-serif" font-weight="700">K</text><rect x="52" y="153" width="448" height="140" rx="10" fill="#FFFFFF" stroke="#D0D2DC" stroke-width="0.5"/><text x="60" y="169" font-size="11" fill="#1E2249" font-family="'Noto Sans KR',sans-serif">축하합니다! 위하고 영업본부 그룹방에 올릴 공지글 초안입니다.</text><text x="60" y="197" font-size="11" fill="#1E2249" font-family="'Noto Sans KR',sans-serif" font-weight="600">[수주 공지] H물산 단체 상해보험 계약 체결 건</text><text x="60" y="215" font-size="10" fill="#5A5E7A" font-family="'Noto Sans KR',sans-serif">•</text><text x="74" y="215" font-size="10" fill="#5A5E7A" font-family="'Noto Sans KR',sans-serif">계약사: H물산</text><text x="60" y="231" font-size="10" fill="#5A5E7A" font-family="'Noto Sans KR',sans-serif">•</text><text x="74" y="231" font-size="10" fill="#5A5E7A" font-family="'Noto Sans KR',sans-serif">계약금액: 3,000,000,000원</text><text x="60" y="247" font-size="10" fill="#5A5E7A" font-family="'Noto Sans KR',sans-serif">•</text><text x="74" y="247" font-size="10" fill="#5A5E7A" font-family="'Noto Sans KR',sans-serif">담당자: 임팀장</text><text x="60" y="263" font-size="11" fill="#1E2249" font-family="'Noto Sans KR',sans-serif">법인영업팀의 노고에 감사드립니다!</text></g><g class="m" style="animation:none;animation-delay:5.4s"><rect x="171.5900000000001" y="307" width="328.4099999999999" height="52" rx="12" fill="#F0F1F5"/><text x="185.5900000000001" y="323" font-size="11" fill="#1E2249" font-family="'Noto Sans KR',sans-serif">좋아, 바로 올려주고, 본부장님께 별도로 실적 승인 요청 결재도</text><text x="185.5900000000001" y="341" font-size="11" fill="#1E2249" font-family="'Noto Sans KR',sans-serif">올려줘.</text></g><g class="m" style="animation:none;animation-delay:6.6s"><rect x="36" y="373" width="448" height="85" rx="8" fill="#fefce8" stroke="#fef08a" stroke-width="0.5"/><rect x="36" y="373" width="4" height="85" rx="2" fill="#C4875B"/><svg x="50" y="379" width="14" height="14" viewBox="0 0 256 256"><path d="M236.8,188.09,149.35,36.22h0a24.76,24.76,0,0,0-42.7,0L19.2,188.09a23.51,23.51,0,0,0,0,23.72A24.35,24.35,0,0,0,40.55,224h174.9a24.35,24.35,0,0,0,21.33-12.19A23.51,23.51,0,0,0,236.8,188.09ZM222.93,203.8a8.5,8.5,0,0,1-7.48,4.2H40.55a8.5,8.5,0,0,1-7.48-4.2,7.59,7.59,0,0,1,0-7.72L120.52,44.21a8.75,8.75,0,0,1,15,0l87.45,151.87A7.59,7.59,0,0,1,222.93,203.8ZM120,144V104a8,8,0,0,1,16,0v40a8,8,0,0,1-16,0Zm20,36a12,12,0,1,1-12-12A12,12,0,0,1,140,180Z" fill="#C4875B"/></svg><text x="70" y="389" font-size="10" fill="#C4875B" font-family="'Noto Sans KR',sans-serif" font-weight="600">고액 실적 승인</text><rect x="444.8" y="379" width="29.2" height="16" rx="8" fill="#eab308" opacity="0.15"/><text x="451.8" y="390" font-size="8" fill="#eab308" font-family="'Geist Mono',monospace" font-weight="600">대기</text><text x="50" y="405" font-size="9" fill="#5A5E7A" font-family="'Geist Mono',monospace">10억 이상 대형 계약 실적 등록 · 본부장 최종 확인 필요</text><rect x="50" y="424" width="56.89999999999999" height="22" rx="6" fill="#C4875B"/><text x="60" y="438" font-size="9" fill="#FFFFFF" font-family="'Noto Sans KR',sans-serif" font-weight="500">결재 상신</text><rect x="114.89999999999999" y="424" width="37.099999999999994" height="22" rx="6" fill="#FFFFFF" stroke="#fef08a" stroke-width="0.5"/><text x="124.89999999999999" y="438" font-size="9" fill="#5A5E7A" font-family="'Noto Sans KR',sans-serif">취소</text></g><g class="m" style="animation:none;animation-delay:7.4s"><rect x="385.87" y="470" width="114.13" height="34" rx="12" fill="#F0F1F5"/><text x="399.87" y="486" font-size="11" fill="#1E2249" font-family="'Noto Sans KR',sans-serif">결재 상신 진행해.</text></g><g class="m" style="animation:none;animation-delay:8.6s"><rect x="36" y="518" width="448" height="53" rx="8" fill="#f5f5f7" stroke="#dddee5" stroke-width="0.5"/><rect x="36" y="518" width="4" height="53" rx="2" fill="#5A5E7A"/><svg x="50" y="524" width="14" height="14" viewBox="0 0 256 256"><path d="M168,152a8,8,0,0,1-8,8H96a8,8,0,0,1,0-16h64A8,8,0,0,1,168,152Zm-8-40H96a8,8,0,0,0,0,16h64a8,8,0,0,0,0-16Zm56-64V216a16,16,0,0,1-16,16H56a16,16,0,0,1-16-16V48A16,16,0,0,1,56,32H92.26a47.92,47.92,0,0,1,71.48,0H200A16,16,0,0,1,216,48ZM96,64h64a32,32,0,0,0-64,0ZM200,48H173.25A47.93,47.93,0,0,1,176,64v8a8,8,0,0,1-8,8H88a8,8,0,0,1-8-8V64a47.93,47.93,0,0,1,2.75-16H56V216H200Z" fill="#5A5E7A"/></svg><text x="70" y="534" font-size="10" fill="#5A5E7A" font-family="'Noto Sans KR',sans-serif" font-weight="600">감사 로그 기록</text><rect x="444.8" y="524" width="29.2" height="16" rx="8" fill="#22c55e" opacity="0.15"/><text x="451.8" y="535" font-size="8" fill="#22c55e" font-family="'Geist Mono',monospace" font-weight="600">통과</text><text x="50" y="550" font-size="9" fill="#5A5E7A" font-family="'Geist Mono',monospace">APP-2026-0225-155 · 고액 영업 실적 승인 결재 상신 완료</text></g><g class="m" style="animation:none;animation-delay:9.4s;animation-duration:1.5s;animation-iteration-count:infinite;animation-timing-function:ease"></g><g class="m" style="animation:none;animation-delay:9.4s"><circle cx="32" cy="599" r="12" fill="#2D3561"/><text x="27" y="603" font-size="9" fill="#FFFFFF" font-family="sans-serif" font-weight="700">K</text><circle cx="56" cy="599" r="2.5" fill="#5A5E7A" style="animation:none"/><circle cx="66" cy="599" r="2.5" fill="#5A5E7A" style="animation:none"/><circle cx="76" cy="599" r="2.5" fill="#5A5E7A" style="animation:none"/></g><g class="m" style="animation:none;animation-delay:10.6s"><circle cx="32" cy="599" r="12" fill="#2D3561"/><text x="27" y="603" font-size="9" fill="#FFFFFF" font-family="sans-serif" font-weight="700">K</text><rect x="52" y="585" width="448" height="82" rx="10" fill="#FFFFFF" stroke="#D0D2DC" stroke-width="0.5"/><text x="60" y="601" font-size="11" fill="#1E2249" font-family="'Noto Sans KR',sans-serif">위하고 영업본부 그룹방에 공지를 등록했으며, 본부장님께 실적 승인 결재 상신을</text><text x="60" y="619" font-size="11" fill="#1E2249" font-family="'Noto Sans KR',sans-serif">완료했습니다.</text><text x="60" y="637" font-size="11" fill="#1E2249" font-family="'Noto Sans KR',sans-serif">이번 계약건으로 임팀장님의 1분기 KPI 달성률이 115%가 되었습니다.</text></g><g class="m" style="animation:none;animation-delay:12.9s"><rect x="20" y="685" width="480" height="32" rx="6" fill="#F0F1F5"/><text x="32" y="705" font-size="8" fill="#5A5E7A" font-family="'Geist Mono',monospace">wehago_post_board → erp_sales_register → wehago_approval</text></g></svg>