<svg viewBox="0 0 520 590" xmlns="http://www.w3.org/2000/svg">
<style>
  @keyframes fc { 0%{opacity:0} 3%{opacity:1} 82%{opacity:1} 90%{opacity:0} 100%{opacity:0} }
  @keyframes dots { 0%,30%{opacity:0.3} 50%{opacity:1} 100%{opacity:0.3} }
  @keyframes pulse { 0%,100%{opacity:0.5} 50%{opacity:1} }
  .m{opacity:0}
</style>
<rect width="520" height="590" rx="12" fill="#FFFFFF"/>
<rect width="520" height="590" rx="12" fill="none" stroke="#D0D2DC" stroke-width="0.5"/>
<g class="m" style="animation:fc 16.4s infinite;animation-delay:0.4s"><rect x="160.92000000000007" y="20" width="339.0799999999999" height="52" rx="12" fill="#F0F1F5"/><text x="174.92000000000007" y="36" font-size="11" fill="#1E2249" font-family="'Noto Sans KR',sans-serif">새로 개발 중인 당뇨병 치료제 임상 3상 피험자 혈당 변화량 데이터</text><text x="174.92000000000007" y="54" font-size="11" fill="#1E2249" font-family="'Noto Sans KR',sans-serif">구글 드라이브에서 가져와서 요약해줘.</text></g><g class="m" style="animation:fc 16.4s infinite;animation-delay:1.6s"><rect x="36" y="86" width="448" height="53" rx="8" fill="#eef0f7" stroke="#c5c9e0" stroke-width="0.5"/><rect x="36" y="86" width="4" height="53" rx="2" fill="#2D3561"/><svg x="50" y="92" width="14" height="14" viewBox="0 0 256 256"><path d="M208,80H176V56a48,48,0,0,0-96,0V80H48A16,16,0,0,0,32,96V208a16,16,0,0,0,16,16H208a16,16,0,0,0,16-16V96A16,16,0,0,0,208,80ZM96,56a32,32,0,0,1,64,0V80H96ZM208,208H48V96H208V208Zm-68-56a12,12,0,1,1-12-12A12,12,0,0,1,140,152Z" fill="#2D3561"/></svg><text x="70" y="102" font-size="10" fill="#2D3561" font-family="'Noto Sans KR',sans-serif" font-weight="600">RBAC 인가 확인</text><rect x="444.8" y="92" width="29.2" height="16" rx="8" fill="#22c55e" opacity="0.15"/><text x="451.8" y="103" font-size="8" fill="#22c55e" font-family="'Geist Mono',monospace" font-weight="600">통과</text><text x="50" y="118" font-size="9" fill="#5A5E7A" font-family="'Geist Mono',monospace">연구개발본부 · Level 5 · 임상시험 기밀 데이터 접근 승인</text></g><g class="m" style="animation:fc 1.5s infinite 16.4s;animation-delay:2.4s;animation-duration:1.5s;animation-iteration-count:infinite;animation-timing-function:ease"></g><g class="m" style="animation:fc 16.4s infinite;animation-delay:2.4s"><circle cx="32" cy="167" r="12" fill="#2D3561"/><text x="27" y="171" font-size="9" fill="#FFFFFF" font-family="sans-serif" font-weight="700">K</text><circle cx="56" cy="167" r="2.5" fill="#5A5E7A" style="animation:dots 0.8s infinite"/><circle cx="66" cy="167" r="2.5" fill="#5A5E7A" style="animation:dots 0.8s 0.15s infinite"/><circle cx="76" cy="167" r="2.5" fill="#5A5E7A" style="animation:dots 0.8s 0.3s infinite"/></g><g class="m" style="animation:fc 16.4s infinite;animation-delay:3.6s"><circle cx="32" cy="167" r="12" fill="#2D3561"/><text x="27" y="171" font-size="9" fill="#FFFFFF" font-family="sans-serif" font-weight="700">K</text><rect x="52" y="153" width="448" height="122" rx="10" fill="#FFFFFF" stroke="#D0D2DC" stroke-width="0.5"/><text x="60" y="169" font-size="11" fill="#1E2249" font-family="'Noto Sans KR',sans-serif">구글 드라이브의 '임상3상_RawData_Part1.csv' 파일을 분석했습니다.</text><text x="60" y="197" font-size="11" fill="#1E2249" font-family="'Noto Sans KR',sans-serif" font-weight="600">[투약 12주차 HbA1c 변화량 요약]</text><text x="60" y="215" font-size="10" fill="#5A5E7A" font-family="'Noto Sans KR',sans-serif">•</text><text x="74" y="215" font-size="10" fill="#5A5E7A" font-family="'Noto Sans KR',sans-serif">시험군(N=150): 평균 -1.2% 감소 (p&lt;0.01)</text><text x="60" y="231" font-size="10" fill="#5A5E7A" font-family="'Noto Sans KR',sans-serif">•</text><text x="74" y="231" font-size="10" fill="#5A5E7A" font-family="'Noto Sans KR',sans-serif">대조군(N=150): 평균 -0.3% 감소</text><text x="60" y="247" font-size="10" fill="#5A5E7A" font-family="'Noto Sans KR',sans-serif">•</text><text x="74" y="247" font-size="10" fill="#5A5E7A" font-family="'Noto Sans KR',sans-serif">중대 이상반응: 0건 발견됨</text></g><g class="m" style="animation:fc 16.4s infinite;animation-delay:5.4s"><rect x="205.69000000000005" y="289" width="294.30999999999995" height="52" rx="12" fill="#F0F1F5"/><text x="219.69000000000005" y="305" font-size="11" fill="#1E2249" font-family="'Noto Sans KR',sans-serif">결과 좋네. 이 내용으로 임원진 보고용 한글(HWPX) 문서</text><text x="219.69000000000005" y="323" font-size="11" fill="#1E2249" font-family="'Noto Sans KR',sans-serif">포맷팅해서 위하고 내게쓰기로 보내줘.</text></g><g class="m" style="animation:fc 16.4s infinite;animation-delay:6.6s"><rect x="36" y="355" width="448" height="53" rx="8" fill="#f5f5f7" stroke="#dddee5" stroke-width="0.5"/><rect x="36" y="355" width="4" height="53" rx="2" fill="#5A5E7A"/><svg x="50" y="361" width="14" height="14" viewBox="0 0 256 256"><path d="M168,152a8,8,0,0,1-8,8H96a8,8,0,0,1,0-16h64A8,8,0,0,1,168,152Zm-8-40H96a8,8,0,0,0,0,16h64a8,8,0,0,0,0-16Zm56-64V216a16,16,0,0,1-16,16H56a16,16,0,0,1-16-16V48A16,16,0,0,1,56,32H92.26a47.92,47.92,0,0,1,71.48,0H200A16,16,0,0,1,216,48ZM96,64h64a32,32,0,0,0-64,0ZM200,48H173.25A47.93,47.93,0,0,1,176,64v8a8,8,0,0,1-8,8H88a8,8,0,0,1-8-8V64a47.93,47.93,0,0,1,2.75-16H56V216H200Z" fill="#5A5E7A"/></svg><text x="70" y="371" font-size="10" fill="#5A5E7A" font-family="'Noto Sans KR',sans-serif" font-weight="600">감사 로그 기록</text><rect x="444.8" y="361" width="29.2" height="16" rx="8" fill="#22c55e" opacity="0.15"/><text x="451.8" y="372" font-size="8" fill="#22c55e" font-family="'Geist Mono',monospace" font-weight="600">통과</text><text x="50" y="387" font-size="9" fill="#5A5E7A" font-family="'Geist Mono',monospace">RND-2026-0225-015 · 임상 데이터 요약 보고서 생성 및 전송</text></g><g class="m" style="animation:fc 1.5s infinite 16.4s;animation-delay:7.4s;animation-duration:1.5s;animation-iteration-count:infinite;animation-timing-function:ease"></g><g class="m" style="animation:fc 16.4s infinite;animation-delay:7.4s"><circle cx="32" cy="436" r="12" fill="#2D3561"/><text x="27" y="440" font-size="9" fill="#FFFFFF" font-family="sans-serif" font-weight="700">K</text><circle cx="56" cy="436" r="2.5" fill="#5A5E7A" style="animation:dots 0.8s infinite"/><circle cx="66" cy="436" r="2.5" fill="#5A5E7A" style="animation:dots 0.8s 0.15s infinite"/><circle cx="76" cy="436" r="2.5" fill="#5A5E7A" style="animation:dots 0.8s 0.3s infinite"/></g><g class="m" style="animation:fc 16.4s infinite;animation-delay:8.6s"><circle cx="32" cy="436" r="12" fill="#2D3561"/><text x="27" y="440" font-size="9" fill="#FFFFFF" font-family="sans-serif" font-weight="700">K</text><rect x="52" y="422" width="448" height="98" rx="10" fill="#FFFFFF" stroke="#D0D2DC" stroke-width="0.5"/><text x="60" y="438" font-size="11" fill="#1E2249" font-family="'Noto Sans KR',sans-serif">보고용 HWPX 문서를 생성하여 위하고 메신저 '내게쓰기'로 전송 완료했습니다.</text><text x="60" y="456" font-size="11" fill="#1E2249" font-family="'Noto Sans KR',sans-serif">문서에는 사내 기밀용 식별 워터마크가 삽입되어 있습니다.</text><rect x="60" y="472" width="221.90000000000003" height="28" rx="6" fill="#F0F1F5" stroke="#D0D2DC" stroke-width="0.5"/><rect x="68" y="476" width="18" height="18" rx="3" fill="#2D3561"/><text x="77" y="488" font-size="5.5" fill="#FFFFFF" font-family="sans-serif" font-weight="700" text-anchor="middle">HWP</text><text x="92" y="488" font-size="10" fill="#1E2249" font-family="'Noto Sans KR',sans-serif" font-weight="500">당뇨치료제_임상3상_중간보고서.hwpx</text></g><g class="m" style="animation:fc 16.4s infinite;animation-delay:10.9s"><rect x="20" y="538" width="480" height="32" rx="6" fill="#F0F1F5"/><text x="32" y="558" font-size="8" fill="#5A5E7A" font-family="'Geist Mono',monospace">gdrive_download → data_analysis → generate_hwpx → wehago_send_message</text></g></svg>