<svg viewBox="0 0 520 570" xmlns="http://www.w3.org/2000/svg">
<style>
  @keyframes fc { 0%{opacity:0} 3%{opacity:1} 82%{opacity:1} 90%{opacity:0} 100%{opacity:0} }
  @keyframes dots { 0%,30%{opacity:0.3} 50%{opacity:1} 100%{opacity:0.3} }
  @keyframes pulse { 0%,100%{opacity:0.5} 50%{opacity:1} }
  .m{opacity:1}
</style>
<rect width="520" height="570" rx="12" fill="#FFFFFF"/>
<rect width="520" height="570" rx="12" fill="none" stroke="#D0D2DC" stroke-width="0.5"/>
<g class="m" style="animation:none;animation-delay:0.4s"><rect x="175.66000000000008" y="20" width="324.3399999999999" height="52" rx="12" fill="#F0F1F5"/><text x="189.66000000000008" y="36" font-size="11" fill="#1E2249" font-family="'Noto Sans KR',sans-serif">지난주 화성공장 A라인과 B라인 생산 실적, 불량률 데이터 더존</text><text x="189.66000000000008" y="54" font-size="11" fill="#1E2249" font-family="'Noto Sans KR',sans-serif">ERP에서 조회해줘.</text></g><g class="m" style="animation:none;animation-delay:1.6s"><rect x="36" y="86" width="448" height="53" rx="8" fill="#eef0f7" stroke="#c5c9e0" stroke-width="0.5"/><rect x="36" y="86" width="4" height="53" rx="2" fill="#2D3561"/><svg x="50" y="92" width="14" height="14" viewBox="0 0 256 256"><path d="M208,80H176V56a48,48,0,0,0-96,0V80H48A16,16,0,0,0,32,96V208a16,16,0,0,0,16,16H208a16,16,0,0,0,16-16V96A16,16,0,0,0,208,80ZM96,56a32,32,0,0,1,64,0V80H96ZM208,208H48V96H208V208Zm-68-56a12,12,0,1,1-12-12A12,12,0,0,1,140,152Z" fill="#2D3561"/></svg><text x="70" y="102" font-size="10" fill="#2D3561" font-family="'Noto Sans KR',sans-serif" font-weight="600">RBAC 인가 확인</text><rect x="444.8" y="92" width="29.2" height="16" rx="8" fill="#22c55e" opacity="0.15"/><text x="451.8" y="103" font-size="8" fill="#22c55e" font-family="'Geist Mono',monospace" font-weight="600">통과</text><text x="50" y="118" font-size="9" fill="#5A5E7A" font-family="'Geist Mono',monospace">생산관리팀 · Level 3 · ERP MES 데이터 접근 승인</text></g><g class="m" style="animation:none;animation-delay:2.4s;animation-duration:1.5s;animation-iteration-count:infinite;animation-timing-function:ease"></g><g class="m" style="animation:none;animation-delay:2.4s"><circle cx="32" cy="167" r="12" fill="#2D3561"/><text x="27" y="171" font-size="9" fill="#FFFFFF" font-family="sans-serif" font-weight="700">K</text><circle cx="56" cy="167" r="2.5" fill="#5A5E7A" style="animation:none"/><circle cx="66" cy="167" r="2.5" fill="#5A5E7A" style="animation:none"/><circle cx="76" cy="167" r="2.5" fill="#5A5E7A" style="animation:none"/></g><g class="m" style="animation:none;animation-delay:3.6s"><circle cx="32" cy="167" r="12" fill="#2D3561"/><text x="27" y="171" font-size="9" fill="#FFFFFF" font-family="sans-serif" font-weight="700">K</text><rect x="52" y="153" width="448" height="110" rx="10" fill="#FFFFFF" stroke="#D0D2DC" stroke-width="0.5"/><text x="60" y="169" font-size="11" fill="#1E2249" font-family="'Noto Sans KR',sans-serif">화성공장 A, B라인의 지난주 생산 실적을 더존 ERP에서 조회했습니다.</text><rect x="58" y="185" width="428" height="16" rx="2" fill="#F0F1F5"/><text x="60" y="197" font-size="9.5" fill="#1E2249" font-family="'Geist Mono',monospace" font-weight="600">라인</text><text x="166" y="197" font-size="9.5" fill="#1E2249" font-family="'Geist Mono',monospace" font-weight="600">목표수량</text><text x="272" y="197" font-size="9.5" fill="#1E2249" font-family="'Geist Mono',monospace" font-weight="600">생산수량</text><text x="378" y="197" font-size="9.5" fill="#1E2249" font-family="'Geist Mono',monospace" font-weight="600">불량률</text><line x1="60" y1="213" x2="484" y2="213" stroke="#D0D2DC" stroke-width="0.5"/><text x="60" y="219" font-size="9.5" fill="#5A5E7A" font-family="'Geist Mono',monospace" >A라인</text><text x="166" y="219" font-size="9.5" fill="#5A5E7A" font-family="'Geist Mono',monospace" >15,000개</text><text x="272" y="219" font-size="9.5" fill="#5A5E7A" font-family="'Geist Mono',monospace" >14,850개</text><text x="378" y="219" font-size="9.5" fill="#5A5E7A" font-family="'Geist Mono',monospace" >1.2%</text><text x="60" y="235" font-size="9.5" fill="#5A5E7A" font-family="'Geist Mono',monospace" >B라인</text><text x="166" y="235" font-size="9.5" fill="#5A5E7A" font-family="'Geist Mono',monospace" >12,000개</text><text x="272" y="235" font-size="9.5" fill="#5A5E7A" font-family="'Geist Mono',monospace" >12,100개</text><text x="378" y="235" font-size="9.5" fill="#5A5E7A" font-family="'Geist Mono',monospace" >0.8%</text></g><g class="m" style="animation:none;animation-delay:5.4s"><rect x="214.3800000000001" y="277" width="285.6199999999999" height="52" rx="12" fill="#F0F1F5"/><text x="228.3800000000001" y="293" font-size="11" fill="#1E2249" font-family="'Noto Sans KR',sans-serif">이 내용으로 HWPX 주간 보고서 만들어서 구글 드라이브</text><text x="228.3800000000001" y="311" font-size="11" fill="#1E2249" font-family="'Noto Sans KR',sans-serif">'생산리포트' 폴더에 올려줘.</text></g><g class="m" style="animation:none;animation-delay:6.6s"><rect x="36" y="343" width="448" height="53" rx="8" fill="#f5f5f7" stroke="#dddee5" stroke-width="0.5"/><rect x="36" y="343" width="4" height="53" rx="2" fill="#5A5E7A"/><svg x="50" y="349" width="14" height="14" viewBox="0 0 256 256"><path d="M168,152a8,8,0,0,1-8,8H96a8,8,0,0,1,0-16h64A8,8,0,0,1,168,152Zm-8-40H96a8,8,0,0,0,0,16h64a8,8,0,0,0,0-16Zm56-64V216a16,16,0,0,1-16,16H56a16,16,0,0,1-16-16V48A16,16,0,0,1,56,32H92.26a47.92,47.92,0,0,1,71.48,0H200A16,16,0,0,1,216,48ZM96,64h64a32,32,0,0,0-64,0ZM200,48H173.25A47.93,47.93,0,0,1,176,64v8a8,8,0,0,1-8,8H88a8,8,0,0,1-8-8V64a47.93,47.93,0,0,1,2.75-16H56V216H200Z" fill="#5A5E7A"/></svg><text x="70" y="359" font-size="10" fill="#5A5E7A" font-family="'Noto Sans KR',sans-serif" font-weight="600">감사 로그 기록</text><rect x="444.8" y="349" width="29.2" height="16" rx="8" fill="#22c55e" opacity="0.15"/><text x="451.8" y="360" font-size="8" fill="#22c55e" font-family="'Geist Mono',monospace" font-weight="600">통과</text><text x="50" y="375" font-size="9" fill="#5A5E7A" font-family="'Geist Mono',monospace">DOC-2026-0225-011 · Google Drive 업로드 완료 · Hash: a7x9...</text></g><g class="m" style="animation:none;animation-delay:7.4s;animation-duration:1.5s;animation-iteration-count:infinite;animation-timing-function:ease"></g><g class="m" style="animation:none;animation-delay:7.4s"><circle cx="32" cy="424" r="12" fill="#2D3561"/><text x="27" y="428" font-size="9" fill="#FFFFFF" font-family="sans-serif" font-weight="700">K</text><circle cx="56" cy="424" r="2.5" fill="#5A5E7A" style="animation:none"/><circle cx="66" cy="424" r="2.5" fill="#5A5E7A" style="animation:none"/><circle cx="76" cy="424" r="2.5" fill="#5A5E7A" style="animation:none"/></g><g class="m" style="animation:none;animation-delay:8.6s"><circle cx="32" cy="424" r="12" fill="#2D3561"/><text x="27" y="428" font-size="9" fill="#FFFFFF" font-family="sans-serif" font-weight="700">K</text><rect x="52" y="410" width="448" height="90" rx="10" fill="#FFFFFF" stroke="#D0D2DC" stroke-width="0.5"/><text x="60" y="426" font-size="11" fill="#1E2249" font-family="'Noto Sans KR',sans-serif">요청하신 주간 보고서를 HWPX 형식으로 생성하여 구글 드라이브에 업로드했습니다.</text><rect x="60" y="452" width="227.70000000000005" height="28" rx="6" fill="#F0F1F5" stroke="#D0D2DC" stroke-width="0.5"/><rect x="68" y="456" width="18" height="18" rx="3" fill="#2D3561"/><text x="77" y="468" font-size="5.5" fill="#FFFFFF" font-family="sans-serif" font-weight="700" text-anchor="middle">HWP</text><text x="92" y="468" font-size="10" fill="#1E2249" font-family="'Noto Sans KR',sans-serif" font-weight="500">화성공장_주간생산실적_2월4주차.hwpx</text></g><g class="m" style="animation:none;animation-delay:10.9s"><rect x="20" y="518" width="480" height="32" rx="6" fill="#F0F1F5"/><text x="32" y="538" font-size="8" fill="#5A5E7A" font-family="'Geist Mono',monospace">erp_query_mes → generate_hwpx → gdrive_upload</text></g></svg>