<svg viewBox="0 0 520 705" xmlns="http://www.w3.org/2000/svg">
<style>
  @keyframes fc { 0%{opacity:0} 3%{opacity:1} 84%{opacity:1} 92%{opacity:0} 100%{opacity:0} }
  @keyframes dots { 0%,30%{opacity:0.3} 50%{opacity:1} 100%{opacity:0.3} }
  @keyframes pulse { 0%,100%{opacity:0.5} 50%{opacity:1} }
  .m{opacity:1}
</style>
<rect width="520" height="705" rx="12" fill="#FFFFFF"/>
<rect width="520" height="705" rx="12" fill="none" stroke="#D0D2DC" stroke-width="0.5"/>
<g class="m" style="animation:none;animation-delay:0.4s"><rect x="205.6900000000001" y="20" width="294.3099999999999" height="52" rx="12" fill="#F0F1F5"/><text x="219.6900000000001" y="36" font-size="11" fill="#1E2249" font-family="'Noto Sans KR',sans-serif">2026년 3월 신규 입사자 12명 명단으로 연봉계약서 초안</text><text x="219.6900000000001" y="54" font-size="11" fill="#1E2249" font-family="'Noto Sans KR',sans-serif">작성해줘.</text></g><g class="m" style="animation:none;animation-delay:1.6s"><rect x="36" y="86" width="448" height="53" rx="8" fill="#f0fdf4" stroke="#bbf7d0" stroke-width="0.5"/><rect x="36" y="86" width="4" height="53" rx="2" fill="#22c55e"/><svg x="50" y="92" width="14" height="14" viewBox="0 0 256 256"><path d="M173.66,98.34a8,8,0,0,1,0,11.32l-56,56a8,8,0,0,1-11.32,0l-24-24a8,8,0,0,1,11.32-11.32L112,148.69l50.34-50.35A8,8,0,0,1,173.66,98.34ZM232,128A104,104,0,1,1,128,24,104.11,104.11,0,0,1,232,128Zm-16,0a88,88,0,1,0-88,88A88.1,88.1,0,0,0,216,128Z" fill="#22c55e"/></svg><text x="70" y="102" font-size="10" fill="#22c55e" font-family="'Noto Sans KR',sans-serif" font-weight="600">데이터 무결성 검증</text><rect x="444.8" y="92" width="29.2" height="16" rx="8" fill="#22c55e" opacity="0.15"/><text x="451.8" y="103" font-size="8" fill="#22c55e" font-family="'Geist Mono',monospace" font-weight="600">통과</text><text x="50" y="118" font-size="9" fill="#5A5E7A" font-family="'Geist Mono',monospace">더존 인사마스터 예비입사자 12명 ↔ 채용시스템 최종합격자 12명 일치 확인</text></g><g class="m" style="animation:none;animation-delay:2.4s;animation-duration:1.5s;animation-iteration-count:infinite;animation-timing-function:ease"></g><g class="m" style="animation:none;animation-delay:2.4s"><circle cx="32" cy="167" r="12" fill="#2D3561"/><text x="27" y="171" font-size="9" fill="#FFFFFF" font-family="sans-serif" font-weight="700">K</text><circle cx="56" cy="167" r="2.5" fill="#5A5E7A" style="animation:none"/><circle cx="66" cy="167" r="2.5" fill="#5A5E7A" style="animation:none"/><circle cx="76" cy="167" r="2.5" fill="#5A5E7A" style="animation:none"/></g><g class="m" style="animation:none;animation-delay:3.6s"><circle cx="32" cy="167" r="12" fill="#2D3561"/><text x="27" y="171" font-size="9" fill="#FFFFFF" font-family="sans-serif" font-weight="700">K</text><rect x="52" y="153" width="448" height="82" rx="10" fill="#FFFFFF" stroke="#D0D2DC" stroke-width="0.5"/><text x="60" y="169" font-size="11" fill="#1E2249" font-family="'Noto Sans KR',sans-serif">더존 ERP 데이터와 채용시스템을 교차 검증하여 12명의 연봉계약서 초안 데이터를</text><text x="60" y="187" font-size="11" fill="#1E2249" font-family="'Noto Sans KR',sans-serif">준비했습니다.</text><text x="60" y="205" font-size="11" fill="#1E2249" font-family="'Noto Sans KR',sans-serif">일괄 생성을 진행할까요?</text></g><g class="m" style="animation:none;animation-delay:5.4s"><rect x="193.48000000000008" y="249" width="306.5199999999999" height="52" rx="12" fill="#F0F1F5"/><text x="207.48000000000008" y="265" font-size="11" fill="#1E2249" font-family="'Noto Sans KR',sans-serif">응, PDF로 생성하고 인사팀장님께 검토 요청 위하고 메시지</text><text x="207.48000000000008" y="283" font-size="11" fill="#1E2249" font-family="'Noto Sans KR',sans-serif">보내줘.</text></g><g class="m" style="animation:none;animation-delay:6.6s"><rect x="36" y="315" width="448" height="85" rx="8" fill="#fefce8" stroke="#fef08a" stroke-width="0.5"/><rect x="36" y="315" width="4" height="85" rx="2" fill="#C4875B"/><svg x="50" y="321" width="14" height="14" viewBox="0 0 256 256"><path d="M236.8,188.09,149.35,36.22h0a24.76,24.76,0,0,0-42.7,0L19.2,188.09a23.51,23.51,0,0,0,0,23.72A24.35,24.35,0,0,0,40.55,224h174.9a24.35,24.35,0,0,0,21.33-12.19A23.51,23.51,0,0,0,236.8,188.09ZM222.93,203.8a8.5,8.5,0,0,1-7.48,4.2H40.55a8.5,8.5,0,0,1-7.48-4.2,7.59,7.59,0,0,1,0-7.72L120.52,44.21a8.75,8.75,0,0,1,15,0l87.45,151.87A7.59,7.59,0,0,1,222.93,203.8ZM120,144V104a8,8,0,0,1,16,0v40a8,8,0,0,1-16,0Zm20,36a12,12,0,1,1-12-12A12,12,0,0,1,140,180Z" fill="#C4875B"/></svg><text x="70" y="331" font-size="10" fill="#C4875B" font-family="'Noto Sans KR',sans-serif" font-weight="600">중요 문서 일괄 생성</text><rect x="444.8" y="321" width="29.2" height="16" rx="8" fill="#eab308" opacity="0.15"/><text x="451.8" y="332" font-size="8" fill="#eab308" font-family="'Geist Mono',monospace" font-weight="600">대기</text><text x="50" y="347" font-size="9" fill="#5A5E7A" font-family="'Geist Mono',monospace">연봉계약서 10건 이상 일괄 생성 · 담당자 최종 승인 필요</text><rect x="50" y="366" width="68.14999999999999" height="22" rx="6" fill="#C4875B"/><text x="60" y="380" font-size="9" fill="#FFFFFF" font-family="'Noto Sans KR',sans-serif" font-weight="500">생성 및 전송</text><rect x="126.14999999999999" y="366" width="37.099999999999994" height="22" rx="6" fill="#FFFFFF" stroke="#fef08a" stroke-width="0.5"/><text x="136.14999999999998" y="380" font-size="9" fill="#5A5E7A" font-family="'Noto Sans KR',sans-serif">취소</text></g><g class="m" style="animation:none;animation-delay:7.4s"><rect x="413.15" y="412" width="86.85" height="34" rx="12" fill="#F0F1F5"/><text x="427.15" y="428" font-size="11" fill="#1E2249" font-family="'Noto Sans KR',sans-serif">생성 및 전송</text></g><g class="m" style="animation:none;animation-delay:8.6s"><rect x="36" y="460" width="448" height="53" rx="8" fill="#fef7f0" stroke="#f0d5bc" stroke-width="0.5"/><rect x="36" y="460" width="4" height="53" rx="2" fill="#C4875B"/><svg x="50" y="466" width="14" height="14" viewBox="0 0 256 256"><path d="M208,40H48A16,16,0,0,0,32,56v56c0,52.72,25.52,84.67,46.93,102.19,23.06,18.86,46,25.26,47,25.53a8,8,0,0,0,4.2,0c1-.27,23.91-6.67,47-25.53C198.48,196.67,224,164.72,224,112V56A16,16,0,0,0,208,40Zm0,72c0,37.07-13.66,67.16-40.6,89.42A129.3,129.3,0,0,1,128,223.62a128.25,128.25,0,0,1-38.92-21.81C61.82,179.51,48,149.3,48,112l0-56,160,0ZM82.34,141.66a8,8,0,0,1,11.32-11.32L112,148.69l50.34-50.35a8,8,0,0,1,11.32,11.32l-56,56a8,8,0,0,1-11.32,0Z" fill="#C4875B"/></svg><text x="70" y="476" font-size="10" fill="#C4875B" font-family="'Noto Sans KR',sans-serif" font-weight="600">개인정보 보호 조치</text><rect x="437.2" y="466" width="36.8" height="16" rx="8" fill="#C4875B" opacity="0.15"/><text x="444.2" y="477" font-size="8" fill="#C4875B" font-family="'Geist Mono',monospace" font-weight="600">마스킹</text><text x="50" y="492" font-size="9" fill="#5A5E7A" font-family="'Geist Mono',monospace">PDF 워터마크 삽입 및 메타데이터 내 주민등록번호 암호화 완료</text></g><g class="m" style="animation:none;animation-delay:9.4s;animation-duration:1.5s;animation-iteration-count:infinite;animation-timing-function:ease"></g><g class="m" style="animation:none;animation-delay:9.4s"><circle cx="32" cy="541" r="12" fill="#2D3561"/><text x="27" y="545" font-size="9" fill="#FFFFFF" font-family="sans-serif" font-weight="700">K</text><circle cx="56" cy="541" r="2.5" fill="#5A5E7A" style="animation:none"/><circle cx="66" cy="541" r="2.5" fill="#5A5E7A" style="animation:none"/><circle cx="76" cy="541" r="2.5" fill="#5A5E7A" style="animation:none"/></g><g class="m" style="animation:none;animation-delay:10.6s"><circle cx="32" cy="541" r="12" fill="#2D3561"/><text x="27" y="545" font-size="9" fill="#FFFFFF" font-family="sans-serif" font-weight="700">K</text><rect x="52" y="527" width="448" height="108" rx="10" fill="#FFFFFF" stroke="#D0D2DC" stroke-width="0.5"/><text x="60" y="543" font-size="11" fill="#1E2249" font-family="'Noto Sans KR',sans-serif">AI 기본법에 따른 식별 워터마크를 삽입하여 12건의 계약서 PDF를 생성했습니다.</text><text x="60" y="561" font-size="11" fill="#1E2249" font-family="'Noto Sans KR',sans-serif">인사팀장님(김부장)께 위하고 메시지와 함께 파일 링크를 전송 완료했습니다.</text><rect x="60" y="587" width="230.30000000000007" height="28" rx="6" fill="#F0F1F5" stroke="#D0D2DC" stroke-width="0.5"/><rect x="68" y="591" width="18" height="18" rx="3" fill="#2D3561"/><text x="77" y="603" font-size="5.5" fill="#FFFFFF" font-family="sans-serif" font-weight="700" text-anchor="middle">ZIP</text><text x="92" y="603" font-size="10" fill="#1E2249" font-family="'Noto Sans KR',sans-serif" font-weight="500">2026_03_신규입사자_계약서_12건.zip</text></g><g class="m" style="animation:none;animation-delay:12.9s"><rect x="20" y="653" width="480" height="32" rx="6" fill="#F0F1F5"/><text x="32" y="673" font-size="8" fill="#5A5E7A" font-family="'Geist Mono',monospace">erp_employee_lookup → generate_pdf_batch → wehago_send_message</text></g></svg>