<svg viewBox="0 0 520 604" xmlns="http://www.w3.org/2000/svg">
<style>
  @keyframes fc { 0%{opacity:0} 3%{opacity:1} 82%{opacity:1} 90%{opacity:0} 100%{opacity:0} }
  @keyframes dots { 0%,30%{opacity:0.3} 50%{opacity:1} 100%{opacity:0.3} }
  @keyframes pulse { 0%,100%{opacity:0.5} 50%{opacity:1} }
  .m{opacity:1}
</style>
<rect width="520" height="604" rx="12" fill="#FFFFFF"/>
<rect width="520" height="604" rx="12" fill="none" stroke="#D0D2DC" stroke-width="0.5"/>
<g class="m" style="animation:none;animation-delay:0.4s"><rect x="167.5200000000001" y="20" width="332.4799999999999" height="52" rx="12" fill="#F0F1F5"/><text x="181.5200000000001" y="36" font-size="11" fill="#1E2249" font-family="'Noto Sans KR',sans-serif">용인 1센터에 현재 안전재고 밑으로 떨어진 생필품 카테고리 품목</text><text x="181.5200000000001" y="54" font-size="11" fill="#1E2249" font-family="'Noto Sans KR',sans-serif">리스트 뽑아줘.</text></g><g class="m" style="animation:none;animation-delay:1.6s"><rect x="36" y="86" width="448" height="53" rx="8" fill="#eef0f7" stroke="#c5c9e0" stroke-width="0.5"/><rect x="36" y="86" width="4" height="53" rx="2" fill="#2D3561"/><svg x="50" y="92" width="14" height="14" viewBox="0 0 256 256"><path d="M208,80H176V56a48,48,0,0,0-96,0V80H48A16,16,0,0,0,32,96V208a16,16,0,0,0,16,16H208a16,16,0,0,0,16-16V96A16,16,0,0,0,208,80ZM96,56a32,32,0,0,1,64,0V80H96ZM208,208H48V96H208V208Zm-68-56a12,12,0,1,1-12-12A12,12,0,0,1,140,152Z" fill="#2D3561"/></svg><text x="70" y="102" font-size="10" fill="#2D3561" font-family="'Noto Sans KR',sans-serif" font-weight="600">RBAC 인가 확인</text><rect x="444.8" y="92" width="29.2" height="16" rx="8" fill="#22c55e" opacity="0.15"/><text x="451.8" y="103" font-size="8" fill="#22c55e" font-family="'Geist Mono',monospace" font-weight="600">통과</text><text x="50" y="118" font-size="9" fill="#5A5E7A" font-family="'Geist Mono',monospace">물류운영팀 · Level 4 · 용인 1센터 WMS/ERP 재고 조회 권한 승인</text></g><g class="m" style="animation:none;animation-delay:2.4s;animation-duration:1.5s;animation-iteration-count:infinite;animation-timing-function:ease"></g><g class="m" style="animation:none;animation-delay:2.4s"><circle cx="32" cy="167" r="12" fill="#2D3561"/><text x="27" y="171" font-size="9" fill="#FFFFFF" font-family="sans-serif" font-weight="700">K</text><circle cx="56" cy="167" r="2.5" fill="#5A5E7A" style="animation:none"/><circle cx="66" cy="167" r="2.5" fill="#5A5E7A" style="animation:none"/><circle cx="76" cy="167" r="2.5" fill="#5A5E7A" style="animation:none"/></g><g class="m" style="animation:none;animation-delay:3.6s"><circle cx="32" cy="167" r="12" fill="#2D3561"/><text x="27" y="171" font-size="9" fill="#FFFFFF" font-family="sans-serif" font-weight="700">K</text><rect x="52" y="153" width="448" height="126" rx="10" fill="#FFFFFF" stroke="#D0D2DC" stroke-width="0.5"/><text x="60" y="169" font-size="11" fill="#1E2249" font-family="'Noto Sans KR',sans-serif">용인 1센터의 WMS 데이터를 확인한 결과, 안전재고 미달 품목은 총 3건입니다.</text><rect x="58" y="185" width="428" height="16" rx="2" fill="#F0F1F5"/><text x="60" y="197" font-size="9.5" fill="#1E2249" font-family="'Geist Mono',monospace" font-weight="600">품목코드</text><text x="144" y="197" font-size="9.5" fill="#1E2249" font-family="'Geist Mono',monospace" font-weight="600">품목명</text><text x="228" y="197" font-size="9.5" fill="#1E2249" font-family="'Geist Mono',monospace" font-weight="600">현재고</text><text x="312" y="197" font-size="9.5" fill="#1E2249" font-family="'Geist Mono',monospace" font-weight="600">안전재고</text><text x="396" y="197" font-size="9.5" fill="#1E2249" font-family="'Geist Mono',monospace" font-weight="600">부족수량</text><line x1="60" y1="213" x2="484" y2="213" stroke="#D0D2DC" stroke-width="0.5"/><text x="60" y="219" font-size="9.5" fill="#5A5E7A" font-family="'Geist Mono',monospace" >C-9921</text><text x="144" y="219" font-size="9.5" fill="#5A5E7A" font-family="'Geist Mono',monospace" >크리넥스 3겹 30롤</text><text x="228" y="219" font-size="9.5" fill="#5A5E7A" font-family="'Geist Mono',monospace" >120개</text><text x="312" y="219" font-size="9.5" fill="#5A5E7A" font-family="'Geist Mono',monospace" >500개</text><text x="396" y="219" font-size="9.5" fill="#5A5E7A" font-family="'Geist Mono',monospace" >380개</text><text x="60" y="235" font-size="9.5" fill="#5A5E7A" font-family="'Geist Mono',monospace" >C-8814</text><text x="144" y="235" font-size="9.5" fill="#5A5E7A" font-family="'Geist Mono',monospace" >다우니 실내건조 1L</text><text x="228" y="235" font-size="9.5" fill="#5A5E7A" font-family="'Geist Mono',monospace" >45개</text><text x="312" y="235" font-size="9.5" fill="#5A5E7A" font-family="'Geist Mono',monospace" >200개</text><text x="396" y="235" font-size="9.5" fill="#5A5E7A" font-family="'Geist Mono',monospace" >155개</text><text x="60" y="251" font-size="9.5" fill="#5A5E7A" font-family="'Geist Mono',monospace" >C-7732</text><text x="144" y="251" font-size="9.5" fill="#5A5E7A" font-family="'Geist Mono',monospace" >햇반 210g 24입</text><text x="228" y="251" font-size="9.5" fill="#5A5E7A" font-family="'Geist Mono',monospace" >310개</text><text x="312" y="251" font-size="9.5" fill="#5A5E7A" font-family="'Geist Mono',monospace" >1,000개</text><text x="396" y="251" font-size="9.5" fill="#5A5E7A" font-family="'Geist Mono',monospace" >690개</text></g><g class="m" style="animation:none;animation-delay:5.4s"><rect x="172.36000000000007" y="293" width="327.63999999999993" height="52" rx="12" fill="#F0F1F5"/><text x="186.36000000000007" y="309" font-size="11" fill="#1E2249" font-family="'Noto Sans KR',sans-serif">부족 수량만큼 발주서 작성해서 CSV 파일로 다운로드 할 수 있게</text><text x="186.36000000000007" y="327" font-size="11" fill="#1E2249" font-family="'Noto Sans KR',sans-serif">해줘.</text></g><g class="m" style="animation:none;animation-delay:6.6s"><rect x="36" y="359" width="448" height="53" rx="8" fill="#f5f5f7" stroke="#dddee5" stroke-width="0.5"/><rect x="36" y="359" width="4" height="53" rx="2" fill="#5A5E7A"/><svg x="50" y="365" width="14" height="14" viewBox="0 0 256 256"><path d="M168,152a8,8,0,0,1-8,8H96a8,8,0,0,1,0-16h64A8,8,0,0,1,168,152Zm-8-40H96a8,8,0,0,0,0,16h64a8,8,0,0,0,0-16Zm56-64V216a16,16,0,0,1-16,16H56a16,16,0,0,1-16-16V48A16,16,0,0,1,56,32H92.26a47.92,47.92,0,0,1,71.48,0H200A16,16,0,0,1,216,48ZM96,64h64a32,32,0,0,0-64,0ZM200,48H173.25A47.93,47.93,0,0,1,176,64v8a8,8,0,0,1-8,8H88a8,8,0,0,1-8-8V64a47.93,47.93,0,0,1,2.75-16H56V216H200Z" fill="#5A5E7A"/></svg><text x="70" y="375" font-size="10" fill="#5A5E7A" font-family="'Noto Sans KR',sans-serif" font-weight="600">감사 로그 기록</text><rect x="444.8" y="365" width="29.2" height="16" rx="8" fill="#22c55e" opacity="0.15"/><text x="451.8" y="376" font-size="8" fill="#22c55e" font-family="'Geist Mono',monospace" font-weight="600">통과</text><text x="50" y="391" font-size="9" fill="#5A5E7A" font-family="'Geist Mono',monospace">INV-2026-0225-041 · 안전재고 발주 데이터 CSV 생성</text></g><g class="m" style="animation:none;animation-delay:7.4s;animation-duration:1.5s;animation-iteration-count:infinite;animation-timing-function:ease"></g><g class="m" style="animation:none;animation-delay:7.4s"><circle cx="32" cy="440" r="12" fill="#2D3561"/><text x="27" y="444" font-size="9" fill="#FFFFFF" font-family="sans-serif" font-weight="700">K</text><circle cx="56" cy="440" r="2.5" fill="#5A5E7A" style="animation:none"/><circle cx="66" cy="440" r="2.5" fill="#5A5E7A" style="animation:none"/><circle cx="76" cy="440" r="2.5" fill="#5A5E7A" style="animation:none"/></g><g class="m" style="animation:none;animation-delay:8.6s"><circle cx="32" cy="440" r="12" fill="#2D3561"/><text x="27" y="444" font-size="9" fill="#FFFFFF" font-family="sans-serif" font-weight="700">K</text><rect x="52" y="426" width="448" height="108" rx="10" fill="#FFFFFF" stroke="#D0D2DC" stroke-width="0.5"/><text x="60" y="442" font-size="11" fill="#1E2249" font-family="'Noto Sans KR',sans-serif">요청하신 3개 품목에 대한 발주 데이터를 CSV 파일로 생성했습니다.</text><rect x="60" y="468" width="226.10000000000008" height="28" rx="6" fill="#F0F1F5" stroke="#D0D2DC" stroke-width="0.5"/><rect x="68" y="472" width="18" height="18" rx="3" fill="#2D3561"/><text x="77" y="484" font-size="5.5" fill="#FFFFFF" font-family="sans-serif" font-weight="700" text-anchor="middle">CSV</text><text x="92" y="484" font-size="10" fill="#1E2249" font-family="'Noto Sans KR',sans-serif" font-weight="500">발주요청_용인1센터_생필품_0225.csv</text><text x="60" y="504" font-size="11" fill="#1E2249" font-family="'Noto Sans KR',sans-serif">해당 파일을 구매팀 ERP 연동 폴더에 업로드하시겠습니까?</text></g><g class="m" style="animation:none;animation-delay:10.9s"><rect x="20" y="552" width="480" height="32" rx="6" fill="#F0F1F5"/><text x="32" y="572" font-size="8" fill="#5A5E7A" font-family="'Geist Mono',monospace">erp_wms_query → generate_csv</text></g></svg>