<svg viewBox="0 0 520 593" xmlns="http://www.w3.org/2000/svg">
<style>
  @keyframes fc { 0%{opacity:0} 3%{opacity:1} 83%{opacity:1} 91%{opacity:0} 100%{opacity:0} }
  @keyframes dots { 0%,30%{opacity:0.3} 50%{opacity:1} 100%{opacity:0.3} }
  @keyframes pulse { 0%,100%{opacity:0.5} 50%{opacity:1} }
  .m{opacity:1}
</style>
<rect width="520" height="593" rx="12" fill="#FFFFFF"/>
<rect width="520" height="593" rx="12" fill="none" stroke="#D0D2DC" stroke-width="0.5"/>
<g class="m" style="animation:none;animation-delay:0.4s"><rect x="173.9000000000001" y="20" width="326.0999999999999" height="52" rx="12" fill="#F0F1F5"/><text x="187.9000000000001" y="36" font-size="11" fill="#1E2249" font-family="'Noto Sans KR',sans-serif">지난주 전사 법인카드 사용 내역 중에 심야 시간대 유흥주점이나</text><text x="187.9000000000001" y="54" font-size="11" fill="#1E2249" font-family="'Noto Sans KR',sans-serif">골프장 결제건 있는지 추출해봐.</text></g><g class="m" style="animation:none;animation-delay:1.6s"><rect x="36" y="86" width="448" height="53" rx="8" fill="#fef7f0" stroke="#f0d5bc" stroke-width="0.5"/><rect x="36" y="86" width="4" height="53" rx="2" fill="#C4875B"/><svg x="50" y="92" width="14" height="14" viewBox="0 0 256 256"><path d="M208,40H48A16,16,0,0,0,32,56v56c0,52.72,25.52,84.67,46.93,102.19,23.06,18.86,46,25.26,47,25.53a8,8,0,0,0,4.2,0c1-.27,23.91-6.67,47-25.53C198.48,196.67,224,164.72,224,112V56A16,16,0,0,0,208,40Zm0,72c0,37.07-13.66,67.16-40.6,89.42A129.3,129.3,0,0,1,128,223.62a128.25,128.25,0,0,1-38.92-21.81C61.82,179.51,48,149.3,48,112l0-56,160,0ZM82.34,141.66a8,8,0,0,1,11.32-11.32L112,148.69l50.34-50.35a8,8,0,0,1,11.32,11.32l-56,56a8,8,0,0,1-11.32,0Z" fill="#C4875B"/></svg><text x="70" y="102" font-size="10" fill="#C4875B" font-family="'Noto Sans KR',sans-serif" font-weight="600">개인/카드정보 감지</text><rect x="437.2" y="92" width="36.8" height="16" rx="8" fill="#C4875B" opacity="0.15"/><text x="444.2" y="103" font-size="8" fill="#C4875B" font-family="'Geist Mono',monospace" font-weight="600">마스킹</text><text x="50" y="118" font-size="9" fill="#5A5E7A" font-family="'Geist Mono',monospace">카드번호 전체, 사원명 마스킹 처리</text></g><g class="m" style="animation:none;animation-delay:2.4s;animation-duration:1.5s;animation-iteration-count:infinite;animation-timing-function:ease"></g><g class="m" style="animation:none;animation-delay:2.4s"><circle cx="32" cy="167" r="12" fill="#2D3561"/><text x="27" y="171" font-size="9" fill="#FFFFFF" font-family="sans-serif" font-weight="700">K</text><circle cx="56" cy="167" r="2.5" fill="#5A5E7A" style="animation:none"/><circle cx="66" cy="167" r="2.5" fill="#5A5E7A" style="animation:none"/><circle cx="76" cy="167" r="2.5" fill="#5A5E7A" style="animation:none"/></g><g class="m" style="animation:none;animation-delay:3.6s"><circle cx="32" cy="167" r="12" fill="#2D3561"/><text x="27" y="171" font-size="9" fill="#FFFFFF" font-family="sans-serif" font-weight="700">K</text><rect x="52" y="153" width="448" height="110" rx="10" fill="#FFFFFF" stroke="#D0D2DC" stroke-width="0.5"/><text x="60" y="169" font-size="11" fill="#1E2249" font-family="'Noto Sans KR',sans-serif">전사 법인카드 결제 내역 중 지정하신 업종 및 시간대 의심 내역을 2건 발견했습니다.</text><rect x="58" y="185" width="428" height="16" rx="2" fill="#F0F1F5"/><text x="60" y="197" font-size="9.5" fill="#1E2249" font-family="'Geist Mono',monospace" font-weight="600">결제일시</text><text x="130" y="197" font-size="9.5" fill="#1E2249" font-family="'Geist Mono',monospace" font-weight="600">부서</text><text x="200" y="197" font-size="9.5" fill="#1E2249" font-family="'Geist Mono',monospace" font-weight="600">사용자</text><text x="270" y="197" font-size="9.5" fill="#1E2249" font-family="'Geist Mono',monospace" font-weight="600">카드번호</text><text x="340" y="197" font-size="9.5" fill="#1E2249" font-family="'Geist Mono',monospace" font-weight="600">가맹점</text><text x="410" y="197" font-size="9.5" fill="#1E2249" font-family="'Geist Mono',monospace" font-weight="600">금액</text><line x1="60" y1="213" x2="484" y2="213" stroke="#D0D2DC" stroke-width="0.5"/><text x="60" y="219" font-size="9.5" fill="#5A5E7A" font-family="'Geist Mono',monospace" >02/21 23:45</text><text x="130" y="219" font-size="9.5" fill="#5A5E7A" font-family="'Geist Mono',monospace" >영업2팀</text><text x="200" y="219" font-size="9.5" fill="#5A5E7A" font-family="'Geist Mono',monospace" >최**</text><text x="270" y="219" font-size="9.5" fill="#5A5E7A" font-family="'Noto Sans KR',sans-serif">---1234</text><text x="340" y="219" font-size="9.5" fill="#5A5E7A" font-family="'Geist Mono',monospace" >퀸즈라운지</text><text x="410" y="219" font-size="9.5" fill="#5A5E7A" font-family="'Geist Mono',monospace" >₩850,000</text><text x="60" y="235" font-size="9.5" fill="#5A5E7A" font-family="'Geist Mono',monospace" >02/22 14:30</text><text x="130" y="235" font-size="9.5" fill="#5A5E7A" font-family="'Geist Mono',monospace" >임원실</text><text x="200" y="235" font-size="9.5" fill="#5A5E7A" font-family="'Geist Mono',monospace" >정**</text><text x="270" y="235" font-size="9.5" fill="#5A5E7A" font-family="'Noto Sans KR',sans-serif">---5678</text><text x="340" y="235" font-size="9.5" fill="#5A5E7A" font-family="'Geist Mono',monospace" >남서울CC</text><text x="410" y="235" font-size="9.5" fill="#5A5E7A" font-family="'Geist Mono',monospace" >₩1,240,000</text></g><g class="m" style="animation:none;animation-delay:5.4s"><rect x="234.5100000000001" y="277" width="265.4899999999999" height="34" rx="12" fill="#F0F1F5"/><text x="248.5100000000001" y="293" font-size="11" fill="#1E2249" font-family="'Noto Sans KR',sans-serif">남서울CC 건은 임원 전결 규정에 맞는지 확인해줘.</text></g><g class="m" style="animation:none;animation-delay:6.6s"><rect x="36" y="325" width="448" height="53" rx="8" fill="#f0fdf4" stroke="#bbf7d0" stroke-width="0.5"/><rect x="36" y="325" width="4" height="53" rx="2" fill="#22c55e"/><svg x="50" y="331" width="14" height="14" viewBox="0 0 256 256"><path d="M173.66,98.34a8,8,0,0,1,0,11.32l-56,56a8,8,0,0,1-11.32,0l-24-24a8,8,0,0,1,11.32-11.32L112,148.69l50.34-50.35A8,8,0,0,1,173.66,98.34ZM232,128A104,104,0,1,1,128,24,104.11,104.11,0,0,1,232,128Zm-16,0a88,88,0,1,0-88,88A88.1,88.1,0,0,0,216,128Z" fill="#22c55e"/></svg><text x="70" y="341" font-size="10" fill="#22c55e" font-family="'Noto Sans KR',sans-serif" font-weight="600">데이터 무결성 검증</text><rect x="444.8" y="331" width="29.2" height="16" rx="8" fill="#22c55e" opacity="0.15"/><text x="451.8" y="342" font-size="8" fill="#22c55e" font-family="'Geist Mono',monospace" font-weight="600">통과</text><text x="50" y="357" font-size="9" fill="#5A5E7A" font-family="'Geist Mono',monospace">결제자 직급(전무) ↔ 사규 임원 복리후생비 한도(월 200만) 교차 검증 · 한도 내 정상 사용</text></g><g class="m" style="animation:none;animation-delay:7.4s"><rect x="36" y="392" width="448" height="53" rx="8" fill="#f5f5f7" stroke="#dddee5" stroke-width="0.5"/><rect x="36" y="392" width="4" height="53" rx="2" fill="#5A5E7A"/><svg x="50" y="398" width="14" height="14" viewBox="0 0 256 256"><path d="M168,152a8,8,0,0,1-8,8H96a8,8,0,0,1,0-16h64A8,8,0,0,1,168,152Zm-8-40H96a8,8,0,0,0,0,16h64a8,8,0,0,0,0-16Zm56-64V216a16,16,0,0,1-16,16H56a16,16,0,0,1-16-16V48A16,16,0,0,1,56,32H92.26a47.92,47.92,0,0,1,71.48,0H200A16,16,0,0,1,216,48ZM96,64h64a32,32,0,0,0-64,0ZM200,48H173.25A47.93,47.93,0,0,1,176,64v8a8,8,0,0,1-8,8H88a8,8,0,0,1-8-8V64a47.93,47.93,0,0,1,2.75-16H56V216H200Z" fill="#5A5E7A"/></svg><text x="70" y="408" font-size="10" fill="#5A5E7A" font-family="'Noto Sans KR',sans-serif" font-weight="600">감사 로그 기록</text><rect x="444.8" y="398" width="29.2" height="16" rx="8" fill="#22c55e" opacity="0.15"/><text x="451.8" y="409" font-size="8" fill="#22c55e" font-family="'Geist Mono',monospace" font-weight="600">통과</text><text x="50" y="424" font-size="9" fill="#5A5E7A" font-family="'Geist Mono',monospace">FNC-2026-0225-077 · 법인카드 규정 위반 점검 수행</text></g><g class="m" style="animation:none;animation-delay:8.2s;animation-duration:1.5s;animation-iteration-count:infinite;animation-timing-function:ease"></g><g class="m" style="animation:none;animation-delay:8.2s"><circle cx="32" cy="473" r="12" fill="#2D3561"/><text x="27" y="477" font-size="9" fill="#FFFFFF" font-family="sans-serif" font-weight="700">K</text><circle cx="56" cy="473" r="2.5" fill="#5A5E7A" style="animation:none"/><circle cx="66" cy="473" r="2.5" fill="#5A5E7A" style="animation:none"/><circle cx="76" cy="473" r="2.5" fill="#5A5E7A" style="animation:none"/></g><g class="m" style="animation:none;animation-delay:9.4s"><circle cx="32" cy="473" r="12" fill="#2D3561"/><text x="27" y="477" font-size="9" fill="#FFFFFF" font-family="sans-serif" font-weight="700">K</text><rect x="52" y="459" width="448" height="64" rx="10" fill="#FFFFFF" stroke="#D0D2DC" stroke-width="0.5"/><text x="60" y="475" font-size="11" fill="#1E2249" font-family="'Noto Sans KR',sans-serif">정</text><text x="70.45" y="475" font-size="11" fill="#1E2249" font-family="'Noto Sans KR',sans-serif" font-weight="600"> 전무님의 골프장 결제 건은 임원 복리후생 한도(월 200만원) 내에 포함되어 사규 위반이 아님을 확인했습니다.</text><text x="60" y="493" font-size="11" fill="#1E2249" font-family="'Noto Sans KR',sans-serif">영업2팀 최</text><text x="111.47999999999999" y="493" font-size="11" fill="#1E2249" font-family="'Noto Sans KR',sans-serif" font-weight="600"> 님의 심야 결제 건에 대해서는 소명 요청을 진행할까요?</text></g><g class="m" style="animation:none;animation-delay:11.7s"><rect x="20" y="541" width="480" height="32" rx="6" fill="#F0F1F5"/><text x="32" y="561" font-size="8" fill="#5A5E7A" font-family="'Geist Mono',monospace">erp_card_query → rule_engine_validation</text></g></svg>