<svg viewBox="0 0 520 578" xmlns="http://www.w3.org/2000/svg">
<style>
  @keyframes fc { 0%{opacity:0} 3%{opacity:1} 82%{opacity:1} 90%{opacity:0} 100%{opacity:0} }
  @keyframes dots { 0%,30%{opacity:0.3} 50%{opacity:1} 100%{opacity:0.3} }
  @keyframes pulse { 0%,100%{opacity:0.5} 50%{opacity:1} }
  .m{opacity:0}
</style>
<rect width="520" height="578" rx="12" fill="#FFFFFF"/>
<rect width="520" height="578" rx="12" fill="none" stroke="#D0D2DC" stroke-width="0.5"/>
<g class="m" style="animation:fc 16.4s infinite;animation-delay:0.4s"><rect x="179.73000000000008" y="20" width="320.2699999999999" height="52" rx="12" fill="#F0F1F5"/><text x="193.73000000000008" y="36" font-size="11" fill="#1E2249" font-family="'Noto Sans KR',sans-serif">어제 송도 주상복합 현장 감리단 지적사항 문서 PDF로 올렸어.</text><text x="193.73000000000008" y="54" font-size="11" fill="#1E2249" font-family="'Noto Sans KR',sans-serif">조치 계획서 엑셀 양식으로 변환해줘.</text></g><g class="m" style="animation:fc 16.4s infinite;animation-delay:1.6s"><rect x="36" y="86" width="448" height="53" rx="8" fill="#eef0f7" stroke="#c5c9e0" stroke-width="0.5"/><rect x="36" y="86" width="4" height="53" rx="2" fill="#2D3561"/><svg x="50" y="92" width="14" height="14" viewBox="0 0 256 256"><path d="M208,80H176V56a48,48,0,0,0-96,0V80H48A16,16,0,0,0,32,96V208a16,16,0,0,0,16,16H208a16,16,0,0,0,16-16V96A16,16,0,0,0,208,80ZM96,56a32,32,0,0,1,64,0V80H96ZM208,208H48V96H208V208Zm-68-56a12,12,0,1,1-12-12A12,12,0,0,1,140,152Z" fill="#2D3561"/></svg><text x="70" y="102" font-size="10" fill="#2D3561" font-family="'Noto Sans KR',sans-serif" font-weight="600">RBAC 인가 확인</text><rect x="444.8" y="92" width="29.2" height="16" rx="8" fill="#22c55e" opacity="0.15"/><text x="451.8" y="103" font-size="8" fill="#22c55e" font-family="'Geist Mono',monospace" font-weight="600">통과</text><text x="50" y="118" font-size="9" fill="#5A5E7A" font-family="'Geist Mono',monospace">품질안전팀 · Level 3 · 현장 품질 문서 열람 및 변환 권한 승인</text></g><g class="m" style="animation:fc 1.5s infinite 16.4s;animation-delay:2.4s;animation-duration:1.5s;animation-iteration-count:infinite;animation-timing-function:ease"></g><g class="m" style="animation:fc 16.4s infinite;animation-delay:2.4s"><circle cx="32" cy="167" r="12" fill="#2D3561"/><text x="27" y="171" font-size="9" fill="#FFFFFF" font-family="sans-serif" font-weight="700">K</text><circle cx="56" cy="167" r="2.5" fill="#5A5E7A" style="animation:dots 0.8s infinite"/><circle cx="66" cy="167" r="2.5" fill="#5A5E7A" style="animation:dots 0.8s 0.15s infinite"/><circle cx="76" cy="167" r="2.5" fill="#5A5E7A" style="animation:dots 0.8s 0.3s infinite"/></g><g class="m" style="animation:fc 16.4s infinite;animation-delay:3.6s"><circle cx="32" cy="167" r="12" fill="#2D3561"/><text x="27" y="171" font-size="9" fill="#FFFFFF" font-family="sans-serif" font-weight="700">K</text><rect x="52" y="153" width="448" height="128" rx="10" fill="#FFFFFF" stroke="#D0D2DC" stroke-width="0.5"/><text x="60" y="169" font-size="11" fill="#1E2249" font-family="'Noto Sans KR',sans-serif">감리 지적사항 PDF를 분석하여 엑셀 조치 계획서 양식으로 변환했습니다.</text><text x="60" y="187" font-size="11" fill="#1E2249" font-family="'Noto Sans KR',sans-serif">총 4건의 지적사항이 추출되었습니다.</text><rect x="58" y="203" width="428" height="16" rx="2" fill="#F0F1F5"/><text x="60" y="215" font-size="9.5" fill="#1E2249" font-family="'Geist Mono',monospace" font-weight="600">번호</text><text x="166" y="215" font-size="9.5" fill="#1E2249" font-family="'Geist Mono',monospace" font-weight="600">지적사항 요지</text><text x="272" y="215" font-size="9.5" fill="#1E2249" font-family="'Geist Mono',monospace" font-weight="600">조치기한</text><text x="378" y="215" font-size="9.5" fill="#1E2249" font-family="'Geist Mono',monospace" font-weight="600">담당공종</text><line x1="60" y1="231" x2="484" y2="231" stroke="#D0D2DC" stroke-width="0.5"/><text x="60" y="237" font-size="9.5" fill="#5A5E7A" font-family="'Geist Mono',monospace" >1</text><text x="166" y="237" font-size="9.5" fill="#5A5E7A" font-family="'Geist Mono',monospace" >B2층 슬래브 철근 배근 간격 불량</text><text x="272" y="237" font-size="9.5" fill="#5A5E7A" font-family="'Geist Mono',monospace" >02/28</text><text x="378" y="237" font-size="9.5" fill="#5A5E7A" font-family="'Geist Mono',monospace" >골조공사</text><text x="60" y="253" font-size="9.5" fill="#5A5E7A" font-family="'Geist Mono',monospace" >2</text><text x="166" y="253" font-size="9.5" fill="#5A5E7A" font-family="'Geist Mono',monospace" >안전난간대 미설치 구간 발견</text><text x="272" y="253" font-size="9.5" fill="#5A5E7A" font-family="'Geist Mono',monospace" >즉시</text><text x="378" y="253" font-size="9.5" fill="#5A5E7A" font-family="'Geist Mono',monospace" >가설공사</text></g><g class="m" style="animation:fc 16.4s infinite;animation-delay:5.4s"><rect x="184.35000000000008" y="295" width="315.6499999999999" height="52" rx="12" fill="#F0F1F5"/><text x="198.35000000000008" y="311" font-size="11" fill="#1E2249" font-family="'Noto Sans KR',sans-serif">엑셀 파일 구글 드라이브 송도현장 폴더에 저장하고 해당 공종</text><text x="198.35000000000008" y="329" font-size="11" fill="#1E2249" font-family="'Noto Sans KR',sans-serif">반장님들한테 지시사항 메일 보내.</text></g><g class="m" style="animation:fc 16.4s infinite;animation-delay:6.6s"><rect x="36" y="361" width="448" height="53" rx="8" fill="#f5f5f7" stroke="#dddee5" stroke-width="0.5"/><rect x="36" y="361" width="4" height="53" rx="2" fill="#5A5E7A"/><svg x="50" y="367" width="14" height="14" viewBox="0 0 256 256"><path d="M168,152a8,8,0,0,1-8,8H96a8,8,0,0,1,0-16h64A8,8,0,0,1,168,152Zm-8-40H96a8,8,0,0,0,0,16h64a8,8,0,0,0,0-16Zm56-64V216a16,16,0,0,1-16,16H56a16,16,0,0,1-16-16V48A16,16,0,0,1,56,32H92.26a47.92,47.92,0,0,1,71.48,0H200A16,16,0,0,1,216,48ZM96,64h64a32,32,0,0,0-64,0ZM200,48H173.25A47.93,47.93,0,0,1,176,64v8a8,8,0,0,1-8,8H88a8,8,0,0,1-8-8V64a47.93,47.93,0,0,1,2.75-16H56V216H200Z" fill="#5A5E7A"/></svg><text x="70" y="377" font-size="10" fill="#5A5E7A" font-family="'Noto Sans KR',sans-serif" font-weight="600">감사 로그 기록</text><rect x="444.8" y="367" width="29.2" height="16" rx="8" fill="#22c55e" opacity="0.15"/><text x="451.8" y="378" font-size="8" fill="#22c55e" font-family="'Geist Mono',monospace" font-weight="600">통과</text><text x="50" y="393" font-size="9" fill="#5A5E7A" font-family="'Geist Mono',monospace">SAFE-2026-0225-021 · 외부 감리 조치 계획서 드라이브 업로드 및 메일 발송</text></g><g class="m" style="animation:fc 1.5s infinite 16.4s;animation-delay:7.4s;animation-duration:1.5s;animation-iteration-count:infinite;animation-timing-function:ease"></g><g class="m" style="animation:fc 16.4s infinite;animation-delay:7.4s"><circle cx="32" cy="442" r="12" fill="#2D3561"/><text x="27" y="446" font-size="9" fill="#FFFFFF" font-family="sans-serif" font-weight="700">K</text><circle cx="56" cy="442" r="2.5" fill="#5A5E7A" style="animation:dots 0.8s infinite"/><circle cx="66" cy="442" r="2.5" fill="#5A5E7A" style="animation:dots 0.8s 0.15s infinite"/><circle cx="76" cy="442" r="2.5" fill="#5A5E7A" style="animation:dots 0.8s 0.3s infinite"/></g><g class="m" style="animation:fc 16.4s infinite;animation-delay:8.6s"><circle cx="32" cy="442" r="12" fill="#2D3561"/><text x="27" y="446" font-size="9" fill="#FFFFFF" font-family="sans-serif" font-weight="700">K</text><rect x="52" y="428" width="448" height="80" rx="10" fill="#FFFFFF" stroke="#D0D2DC" stroke-width="0.5"/><rect x="60" y="442" width="382.4000000000001" height="28" rx="6" fill="#F0F1F5" stroke="#D0D2DC" stroke-width="0.5"/><rect x="68" y="446" width="18" height="18" rx="3" fill="#2D3561"/><text x="77" y="458" font-size="5.5" fill="#FFFFFF" font-family="sans-serif" font-weight="700" text-anchor="middle">XLS</text><text x="92" y="458" font-size="10" fill="#1E2249" font-family="'Noto Sans KR',sans-serif" font-weight="500">구글 드라이브에 엑셀 파일을 저장했습니다.  송도_감리지적_조치계획.xlsx</text><text x="60" y="478" font-size="11" fill="#1E2249" font-family="'Noto Sans KR',sans-serif">골조공사 및 가설공사 담당 협력사 소장님들께 조치 지시 이메일을 발송 완료했습니다.</text></g><g class="m" style="animation:fc 16.4s infinite;animation-delay:10.9s"><rect x="20" y="526" width="480" height="32" rx="6" fill="#F0F1F5"/><text x="32" y="546" font-size="8" fill="#5A5E7A" font-family="'Geist Mono',monospace">parse_pdf → generate_excel → gdrive_upload → gmail_send</text></g></svg>