<svg viewBox="0 0 520 647" xmlns="http://www.w3.org/2000/svg">
<style>
  @keyframes fc { 0%{opacity:0} 3%{opacity:1} 83%{opacity:1} 91%{opacity:0} 100%{opacity:0} }
  @keyframes dots { 0%,30%{opacity:0.3} 50%{opacity:1} 100%{opacity:0.3} }
  @keyframes pulse { 0%,100%{opacity:0.5} 50%{opacity:1} }
  .m{opacity:0}
</style>
<rect width="520" height="647" rx="12" fill="#FFFFFF"/>
<rect width="520" height="647" rx="12" fill="none" stroke="#D0D2DC" stroke-width="0.5"/>
<g class="m" style="animation:fc 17.200000000000003s infinite;animation-delay:0.4s"><rect x="182.04000000000008" y="20" width="317.9599999999999" height="52" rx="12" fill="#F0F1F5"/><text x="196.04000000000008" y="36" font-size="11" fill="#1E2249" font-family="'Noto Sans KR',sans-serif">올해 토목공사 협력사 20곳 더존에서 재무 데이터 뽑아서 신용</text><text x="196.04000000000008" y="54" font-size="11" fill="#1E2249" font-family="'Noto Sans KR',sans-serif">등급 평가 테이블 만들어줘.</text></g><g class="m" style="animation:fc 17.200000000000003s infinite;animation-delay:1.6s"><rect x="36" y="86" width="448" height="53" rx="8" fill="#fef7f0" stroke="#f0d5bc" stroke-width="0.5"/><rect x="36" y="86" width="4" height="53" rx="2" fill="#C4875B"/><svg x="50" y="92" width="14" height="14" viewBox="0 0 256 256"><path d="M208,40H48A16,16,0,0,0,32,56v56c0,52.72,25.52,84.67,46.93,102.19,23.06,18.86,46,25.26,47,25.53a8,8,0,0,0,4.2,0c1-.27,23.91-6.67,47-25.53C198.48,196.67,224,164.72,224,112V56A16,16,0,0,0,208,40Zm0,72c0,37.07-13.66,67.16-40.6,89.42A129.3,129.3,0,0,1,128,223.62a128.25,128.25,0,0,1-38.92-21.81C61.82,179.51,48,149.3,48,112l0-56,160,0ZM82.34,141.66a8,8,0,0,1,11.32-11.32L112,148.69l50.34-50.35a8,8,0,0,1,11.32,11.32l-56,56a8,8,0,0,1-11.32,0Z" fill="#C4875B"/></svg><text x="70" y="102" font-size="10" fill="#C4875B" font-family="'Noto Sans KR',sans-serif" font-weight="600">기업/개인정보 감지</text><rect x="437.2" y="92" width="36.8" height="16" rx="8" fill="#C4875B" opacity="0.15"/><text x="444.2" y="103" font-size="8" fill="#C4875B" font-family="'Geist Mono',monospace" font-weight="600">마스킹</text><text x="50" y="118" font-size="9" fill="#5A5E7A" font-family="'Geist Mono',monospace">협력사 대표자명, 법인등록번호 마스킹 처리</text></g><g class="m" style="animation:fc 1.5s infinite 17.200000000000003s;animation-delay:2.4s;animation-duration:1.5s;animation-iteration-count:infinite;animation-timing-function:ease"></g><g class="m" style="animation:fc 17.200000000000003s infinite;animation-delay:2.4s"><circle cx="32" cy="167" r="12" fill="#2D3561"/><text x="27" y="171" font-size="9" fill="#FFFFFF" font-family="sans-serif" font-weight="700">K</text><circle cx="56" cy="167" r="2.5" fill="#5A5E7A" style="animation:dots 0.8s infinite"/><circle cx="66" cy="167" r="2.5" fill="#5A5E7A" style="animation:dots 0.8s 0.15s infinite"/><circle cx="76" cy="167" r="2.5" fill="#5A5E7A" style="animation:dots 0.8s 0.3s infinite"/></g><g class="m" style="animation:fc 17.200000000000003s infinite;animation-delay:3.6s"><circle cx="32" cy="167" r="12" fill="#2D3561"/><text x="27" y="171" font-size="9" fill="#FFFFFF" font-family="sans-serif" font-weight="700">K</text><rect x="52" y="153" width="448" height="128" rx="10" fill="#FFFFFF" stroke="#D0D2DC" stroke-width="0.5"/><text x="60" y="169" font-size="11" fill="#1E2249" font-family="'Noto Sans KR',sans-serif">더존 ERP의 협력사 재무 데이터를 기반으로 신용 등급 평가를 수행했습니다.</text><rect x="58" y="185" width="428" height="16" rx="2" fill="#F0F1F5"/><text x="60" y="197" font-size="9.5" fill="#1E2249" font-family="'Geist Mono',monospace" font-weight="600">협력사명</text><text x="144" y="197" font-size="9.5" fill="#1E2249" font-family="'Geist Mono',monospace" font-weight="600">부채비율</text><text x="228" y="197" font-size="9.5" fill="#1E2249" font-family="'Geist Mono',monospace" font-weight="600">유동비율</text><text x="312" y="197" font-size="9.5" fill="#1E2249" font-family="'Geist Mono',monospace" font-weight="600">산출등급</text><text x="396" y="197" font-size="9.5" fill="#1E2249" font-family="'Geist Mono',monospace" font-weight="600">전년대비</text><line x1="60" y1="213" x2="484" y2="213" stroke="#D0D2DC" stroke-width="0.5"/><text x="60" y="219" font-size="9.5" fill="#5A5E7A" font-family="'Geist Mono',monospace" >㈜제일토건</text><text x="144" y="219" font-size="9.5" fill="#5A5E7A" font-family="'Geist Mono',monospace" >120%</text><text x="228" y="219" font-size="9.5" fill="#5A5E7A" font-family="'Geist Mono',monospace" >150%</text><text x="312" y="219" font-size="9.5" fill="#5A5E7A" font-family="'Geist Mono',monospace" >A</text><text x="396" y="219" font-size="9.5" fill="#5A5E7A" font-family="'Geist Mono',monospace" >유지</text><text x="60" y="235" font-size="9.5" fill="#5A5E7A" font-family="'Geist Mono',monospace" >한양기초㈜</text><text x="144" y="235" font-size="9.5" fill="#5A5E7A" font-family="'Geist Mono',monospace" >280%</text><text x="228" y="235" font-size="9.5" fill="#5A5E7A" font-family="'Geist Mono',monospace" >85%</text><text x="312" y="235" font-size="9.5" fill="#5A5E7A" font-family="'Geist Mono',monospace" >C</text><text x="396" y="235" font-size="9.5" fill="#5A5E7A" font-family="'Geist Mono',monospace" >하락</text><text x="60" y="251" font-size="11" fill="#1E2249" font-family="'Noto Sans KR',sans-serif">총 20개사 중 2개사 예시 표시</text></g><g class="m" style="animation:fc 17.200000000000003s infinite;animation-delay:5.4s"><rect x="181.2700000000001" y="295" width="318.7299999999999" height="52" rx="12" fill="#F0F1F5"/><text x="195.2700000000001" y="311" font-size="11" fill="#1E2249" font-family="'Noto Sans KR',sans-serif">한양기초는 부채비율이 너무 높네. 하도급 제한 업체 리스트에</text><text x="195.2700000000001" y="329" font-size="11" fill="#1E2249" font-family="'Noto Sans KR',sans-serif">추가해.</text></g><g class="m" style="animation:fc 17.200000000000003s infinite;animation-delay:6.6s"><rect x="36" y="361" width="448" height="53" rx="8" fill="#f0fdf4" stroke="#bbf7d0" stroke-width="0.5"/><rect x="36" y="361" width="4" height="53" rx="2" fill="#22c55e"/><svg x="50" y="367" width="14" height="14" viewBox="0 0 256 256"><path d="M173.66,98.34a8,8,0,0,1,0,11.32l-56,56a8,8,0,0,1-11.32,0l-24-24a8,8,0,0,1,11.32-11.32L112,148.69l50.34-50.35A8,8,0,0,1,173.66,98.34ZM232,128A104,104,0,1,1,128,24,104.11,104.11,0,0,1,232,128Zm-16,0a88,88,0,1,0-88,88A88.1,88.1,0,0,0,216,128Z" fill="#22c55e"/></svg><text x="70" y="377" font-size="10" fill="#22c55e" font-family="'Noto Sans KR',sans-serif" font-weight="600">데이터 무결성 검증</text><rect x="444.8" y="367" width="29.2" height="16" rx="8" fill="#22c55e" opacity="0.15"/><text x="451.8" y="378" font-size="8" fill="#22c55e" font-family="'Geist Mono',monospace" font-weight="600">통과</text><text x="50" y="393" font-size="9" fill="#5A5E7A" font-family="'Geist Mono',monospace">신용평가사(나이스) 실시간 API 연동 ↔ 내부 ERP 데이터 교차 검증 · 부채비율 280% 일치 확인</text></g><g class="m" style="animation:fc 17.200000000000003s infinite;animation-delay:7.4s"><rect x="36" y="428" width="448" height="53" rx="8" fill="#f5f5f7" stroke="#dddee5" stroke-width="0.5"/><rect x="36" y="428" width="4" height="53" rx="2" fill="#5A5E7A"/><svg x="50" y="434" width="14" height="14" viewBox="0 0 256 256"><path d="M168,152a8,8,0,0,1-8,8H96a8,8,0,0,1,0-16h64A8,8,0,0,1,168,152Zm-8-40H96a8,8,0,0,0,0,16h64a8,8,0,0,0,0-16Zm56-64V216a16,16,0,0,1-16,16H56a16,16,0,0,1-16-16V48A16,16,0,0,1,56,32H92.26a47.92,47.92,0,0,1,71.48,0H200A16,16,0,0,1,216,48ZM96,64h64a32,32,0,0,0-64,0ZM200,48H173.25A47.93,47.93,0,0,1,176,64v8a8,8,0,0,1-8,8H88a8,8,0,0,1-8-8V64a47.93,47.93,0,0,1,2.75-16H56V216H200Z" fill="#5A5E7A"/></svg><text x="70" y="444" font-size="10" fill="#5A5E7A" font-family="'Noto Sans KR',sans-serif" font-weight="600">감사 로그 기록</text><rect x="444.8" y="434" width="29.2" height="16" rx="8" fill="#22c55e" opacity="0.15"/><text x="451.8" y="445" font-size="8" fill="#22c55e" font-family="'Geist Mono',monospace" font-weight="600">통과</text><text x="50" y="460" font-size="9" fill="#5A5E7A" font-family="'Geist Mono',monospace">VEND-2026-0225-003 · 협력사 상태 '하도급 제한'으로 ERP 업데이트</text></g><g class="m" style="animation:fc 1.5s infinite 17.200000000000003s;animation-delay:8.2s;animation-duration:1.5s;animation-iteration-count:infinite;animation-timing-function:ease"></g><g class="m" style="animation:fc 17.200000000000003s infinite;animation-delay:8.2s"><circle cx="32" cy="509" r="12" fill="#2D3561"/><text x="27" y="513" font-size="9" fill="#FFFFFF" font-family="sans-serif" font-weight="700">K</text><circle cx="56" cy="509" r="2.5" fill="#5A5E7A" style="animation:dots 0.8s infinite"/><circle cx="66" cy="509" r="2.5" fill="#5A5E7A" style="animation:dots 0.8s 0.15s infinite"/><circle cx="76" cy="509" r="2.5" fill="#5A5E7A" style="animation:dots 0.8s 0.3s infinite"/></g><g class="m" style="animation:fc 17.200000000000003s infinite;animation-delay:9.4s"><circle cx="32" cy="509" r="12" fill="#2D3561"/><text x="27" y="513" font-size="9" fill="#FFFFFF" font-family="sans-serif" font-weight="700">K</text><rect x="52" y="495" width="448" height="82" rx="10" fill="#FFFFFF" stroke="#D0D2DC" stroke-width="0.5"/><text x="60" y="511" font-size="11" fill="#1E2249" font-family="'Noto Sans KR',sans-serif">한양기초㈜의 재무 리스크가 확인되어 더존 ERP 협력사 마스터에서 '하도급</text><text x="60" y="529" font-size="11" fill="#1E2249" font-family="'Noto Sans KR',sans-serif">제한(C등급)'으로 상태를 변경했습니다.</text><text x="60" y="547" font-size="11" fill="#1E2249" font-family="'Noto Sans KR',sans-serif">기획팀 및 구매팀에 변동 사항 알림이 전송되었습니다.</text></g><g class="m" style="animation:fc 17.200000000000003s infinite;animation-delay:11.7s"><rect x="20" y="595" width="480" height="32" rx="6" fill="#F0F1F5"/><text x="32" y="615" font-size="8" fill="#5A5E7A" font-family="'Geist Mono',monospace">erp_vendor_query → api_credit_check → erp_vendor_update</text></g></svg>