<svg viewBox="0 0 520 746" xmlns="http://www.w3.org/2000/svg">
<style>
  @keyframes fc { 0%{opacity:0} 3%{opacity:1} 84%{opacity:1} 92%{opacity:0} 100%{opacity:0} }
  @keyframes dots { 0%,30%{opacity:0.3} 50%{opacity:1} 100%{opacity:0.3} }
  @keyframes pulse { 0%,100%{opacity:0.5} 50%{opacity:1} }
  .m{opacity:0}
</style>
<rect width="520" height="746" rx="12" fill="#FFFFFF"/>
<rect width="520" height="746" rx="12" fill="none" stroke="#D0D2DC" stroke-width="0.5"/>
<g class="m" style="animation:fc 19.200000000000003s infinite;animation-delay:0.4s"><rect x="168.29000000000013" y="20" width="331.70999999999987" height="52" rx="12" fill="#F0F1F5"/><text x="182.29000000000013" y="36" font-size="11" fill="#1E2249" font-family="'Noto Sans KR',sans-serif">광명 아파트 현장 2월 4주차 일용직 노임 대장 더존에서 불러와서</text><text x="182.29000000000013" y="54" font-size="11" fill="#1E2249" font-family="'Noto Sans KR',sans-serif">출력해줘.</text></g><g class="m" style="animation:fc 19.200000000000003s infinite;animation-delay:1.6s"><rect x="36" y="86" width="448" height="53" rx="8" fill="#f0fdf4" stroke="#bbf7d0" stroke-width="0.5"/><rect x="36" y="86" width="4" height="53" rx="2" fill="#22c55e"/><svg x="50" y="92" width="14" height="14" viewBox="0 0 256 256"><path d="M173.66,98.34a8,8,0,0,1,0,11.32l-56,56a8,8,0,0,1-11.32,0l-24-24a8,8,0,0,1,11.32-11.32L112,148.69l50.34-50.35A8,8,0,0,1,173.66,98.34ZM232,128A104,104,0,1,1,128,24,104.11,104.11,0,0,1,232,128Zm-16,0a88,88,0,1,0-88,88A88.1,88.1,0,0,0,216,128Z" fill="#22c55e"/></svg><text x="70" y="102" font-size="10" fill="#22c55e" font-family="'Noto Sans KR',sans-serif" font-weight="600">데이터 무결성 검증</text><rect x="444.8" y="92" width="29.2" height="16" rx="8" fill="#22c55e" opacity="0.15"/><text x="451.8" y="103" font-size="8" fill="#22c55e" font-family="'Geist Mono',monospace" font-weight="600">통과</text><text x="50" y="118" font-size="9" fill="#5A5E7A" font-family="'Geist Mono',monospace">출입통제시스템(게이트) 공수 ↔ ERP 노임대장 청구 공수 교차 검증 · 3명 공수 불일치 발견</text></g><g class="m" style="animation:fc 1.5s infinite 19.200000000000003s;animation-delay:2.4s;animation-duration:1.5s;animation-iteration-count:infinite;animation-timing-function:ease"></g><g class="m" style="animation:fc 19.200000000000003s infinite;animation-delay:2.4s"><circle cx="32" cy="167" r="12" fill="#2D3561"/><text x="27" y="171" font-size="9" fill="#FFFFFF" font-family="sans-serif" font-weight="700">K</text><circle cx="56" cy="167" r="2.5" fill="#5A5E7A" style="animation:dots 0.8s infinite"/><circle cx="66" cy="167" r="2.5" fill="#5A5E7A" style="animation:dots 0.8s 0.15s infinite"/><circle cx="76" cy="167" r="2.5" fill="#5A5E7A" style="animation:dots 0.8s 0.3s infinite"/></g><g class="m" style="animation:fc 19.200000000000003s infinite;animation-delay:3.6s"><circle cx="32" cy="167" r="12" fill="#2D3561"/><text x="27" y="171" font-size="9" fill="#FFFFFF" font-family="sans-serif" font-weight="700">K</text><rect x="52" y="153" width="448" height="100" rx="10" fill="#FFFFFF" stroke="#D0D2DC" stroke-width="0.5"/><text x="60" y="169" font-size="11" fill="#1E2249" font-family="'Noto Sans KR',sans-serif">노임 대장을 불러왔으나, 출입 게이트 데이터와 대조 결과 3명의 출력 공수가</text><text x="60" y="187" font-size="11" fill="#1E2249" font-family="'Noto Sans KR',sans-serif">불일치합니다.</text><text x="60" y="205" font-size="11" fill="#1E2249" font-family="'Noto Sans KR',sans-serif">(예: 김반장 게이트 기록 4일 / 청구 공수 5일)</text><text x="60" y="223" font-size="11" fill="#1E2249" font-family="'Noto Sans KR',sans-serif">수정 후 진행할까요?</text></g><g class="m" style="animation:fc 19.200000000000003s infinite;animation-delay:5.4s"><rect x="177.97000000000008" y="267" width="322.0299999999999" height="52" rx="12" fill="#F0F1F5"/><text x="191.97000000000008" y="283" font-size="11" fill="#1E2249" font-family="'Noto Sans KR',sans-serif">내가 어제 수기로 추가한 분량이야. 무시하고 그대로 노임 지급</text><text x="191.97000000000008" y="301" font-size="11" fill="#1E2249" font-family="'Noto Sans KR',sans-serif">결재 상신해.</text></g><g class="m" style="animation:fc 19.200000000000003s infinite;animation-delay:6.6s"><rect x="36" y="333" width="448" height="85" rx="8" fill="#fefce8" stroke="#fef08a" stroke-width="0.5"/><rect x="36" y="333" width="4" height="85" rx="2" fill="#C4875B"/><svg x="50" y="339" width="14" height="14" viewBox="0 0 256 256"><path d="M236.8,188.09,149.35,36.22h0a24.76,24.76,0,0,0-42.7,0L19.2,188.09a23.51,23.51,0,0,0,0,23.72A24.35,24.35,0,0,0,40.55,224h174.9a24.35,24.35,0,0,0,21.33-12.19A23.51,23.51,0,0,0,236.8,188.09ZM222.93,203.8a8.5,8.5,0,0,1-7.48,4.2H40.55a8.5,8.5,0,0,1-7.48-4.2,7.59,7.59,0,0,1,0-7.72L120.52,44.21a8.75,8.75,0,0,1,15,0l87.45,151.87A7.59,7.59,0,0,1,222.93,203.8ZM120,144V104a8,8,0,0,1,16,0v40a8,8,0,0,1-16,0Zm20,36a12,12,0,1,1-12-12A12,12,0,0,1,140,180Z" fill="#C4875B"/></svg><text x="70" y="349" font-size="10" fill="#C4875B" font-family="'Noto Sans KR',sans-serif" font-weight="600">노임 지급 상신</text><rect x="444.8" y="339" width="29.2" height="16" rx="8" fill="#eab308" opacity="0.15"/><text x="451.8" y="350" font-size="8" fill="#eab308" font-family="'Geist Mono',monospace" font-weight="600">대기</text><text x="50" y="365" font-size="9" fill="#5A5E7A" font-family="'Geist Mono',monospace">총 145명 · ₩32,500,000 노임 이체 건 · 현장소장 결재 필요</text><rect x="50" y="384" width="56.89999999999999" height="22" rx="6" fill="#C4875B"/><text x="60" y="398" font-size="9" fill="#FFFFFF" font-family="'Noto Sans KR',sans-serif" font-weight="500">결재 상신</text><rect x="114.89999999999999" y="384" width="37.099999999999994" height="22" rx="6" fill="#FFFFFF" stroke="#fef08a" stroke-width="0.5"/><text x="124.89999999999999" y="398" font-size="9" fill="#5A5E7A" font-family="'Noto Sans KR',sans-serif">취소</text></g><g class="m" style="animation:fc 19.200000000000003s infinite;animation-delay:7.4s"><rect x="420.52" y="430" width="79.47999999999999" height="34" rx="12" fill="#F0F1F5"/><text x="434.52" y="446" font-size="11" fill="#1E2249" font-family="'Noto Sans KR',sans-serif">결재 상신.</text></g><g class="m" style="animation:fc 19.200000000000003s infinite;animation-delay:8.6s"><rect x="36" y="478" width="448" height="53" rx="8" fill="#fef7f0" stroke="#f0d5bc" stroke-width="0.5"/><rect x="36" y="478" width="4" height="53" rx="2" fill="#C4875B"/><svg x="50" y="484" width="14" height="14" viewBox="0 0 256 256"><path d="M208,40H48A16,16,0,0,0,32,56v56c0,52.72,25.52,84.67,46.93,102.19,23.06,18.86,46,25.26,47,25.53a8,8,0,0,0,4.2,0c1-.27,23.91-6.67,47-25.53C198.48,196.67,224,164.72,224,112V56A16,16,0,0,0,208,40Zm0,72c0,37.07-13.66,67.16-40.6,89.42A129.3,129.3,0,0,1,128,223.62a128.25,128.25,0,0,1-38.92-21.81C61.82,179.51,48,149.3,48,112l0-56,160,0ZM82.34,141.66a8,8,0,0,1,11.32-11.32L112,148.69l50.34-50.35a8,8,0,0,1,11.32,11.32l-56,56a8,8,0,0,1-11.32,0Z" fill="#C4875B"/></svg><text x="70" y="494" font-size="10" fill="#C4875B" font-family="'Noto Sans KR',sans-serif" font-weight="600">개인정보 보호 조치</text><rect x="437.2" y="484" width="36.8" height="16" rx="8" fill="#C4875B" opacity="0.15"/><text x="444.2" y="495" font-size="8" fill="#C4875B" font-family="'Geist Mono',monospace" font-weight="600">마스킹</text><text x="50" y="510" font-size="9" fill="#5A5E7A" font-family="'Geist Mono',monospace">노임대장 내 외국인등록번호 및 계좌번호 일부 마스킹</text></g><g class="m" style="animation:fc 19.200000000000003s infinite;animation-delay:9.4s"><rect x="36" y="545" width="448" height="53" rx="8" fill="#f5f5f7" stroke="#dddee5" stroke-width="0.5"/><rect x="36" y="545" width="4" height="53" rx="2" fill="#5A5E7A"/><svg x="50" y="551" width="14" height="14" viewBox="0 0 256 256"><path d="M168,152a8,8,0,0,1-8,8H96a8,8,0,0,1,0-16h64A8,8,0,0,1,168,152Zm-8-40H96a8,8,0,0,0,0,16h64a8,8,0,0,0,0-16Zm56-64V216a16,16,0,0,1-16,16H56a16,16,0,0,1-16-16V48A16,16,0,0,1,56,32H92.26a47.92,47.92,0,0,1,71.48,0H200A16,16,0,0,1,216,48ZM96,64h64a32,32,0,0,0-64,0ZM200,48H173.25A47.93,47.93,0,0,1,176,64v8a8,8,0,0,1-8,8H88a8,8,0,0,1-8-8V64a47.93,47.93,0,0,1,2.75-16H56V216H200Z" fill="#5A5E7A"/></svg><text x="70" y="561" font-size="10" fill="#5A5E7A" font-family="'Noto Sans KR',sans-serif" font-weight="600">감사 로그 기록</text><rect x="444.8" y="551" width="29.2" height="16" rx="8" fill="#22c55e" opacity="0.15"/><text x="451.8" y="562" font-size="8" fill="#22c55e" font-family="'Geist Mono',monospace" font-weight="600">통과</text><text x="50" y="577" font-size="9" fill="#5A5E7A" font-family="'Geist Mono',monospace">HR-2026-0225-133 · 수기 공수 보정 건 포함 노임 결재 상신</text></g><g class="m" style="animation:fc 1.5s infinite 19.200000000000003s;animation-delay:10.2s;animation-duration:1.5s;animation-iteration-count:infinite;animation-timing-function:ease"></g><g class="m" style="animation:fc 19.200000000000003s infinite;animation-delay:10.2s"><circle cx="32" cy="626" r="12" fill="#2D3561"/><text x="27" y="630" font-size="9" fill="#FFFFFF" font-family="sans-serif" font-weight="700">K</text><circle cx="56" cy="626" r="2.5" fill="#5A5E7A" style="animation:dots 0.8s infinite"/><circle cx="66" cy="626" r="2.5" fill="#5A5E7A" style="animation:dots 0.8s 0.15s infinite"/><circle cx="76" cy="626" r="2.5" fill="#5A5E7A" style="animation:dots 0.8s 0.3s infinite"/></g><g class="m" style="animation:fc 19.200000000000003s infinite;animation-delay:11.4s"><circle cx="32" cy="626" r="12" fill="#2D3561"/><text x="27" y="630" font-size="9" fill="#FFFFFF" font-family="sans-serif" font-weight="700">K</text><rect x="52" y="612" width="448" height="64" rx="10" fill="#FFFFFF" stroke="#D0D2DC" stroke-width="0.5"/><text x="60" y="628" font-size="11" fill="#1E2249" font-family="'Noto Sans KR',sans-serif">광명 현장소장님께 2월 4주차 일용직 노임 지급 위하고 결재 상신을 완료했습니다.</text><text x="60" y="646" font-size="11" fill="#1E2249" font-family="'Noto Sans KR',sans-serif">결재 완료 시 은행 펌뱅킹을 통해 일괄 이체가 진행됩니다.</text></g><g class="m" style="animation:fc 19.200000000000003s infinite;animation-delay:13.7s"><rect x="20" y="694" width="480" height="32" rx="6" fill="#F0F1F5"/><text x="32" y="714" font-size="8" fill="#5A5E7A" font-family="'Geist Mono',monospace">erp_payroll_query → cross_reference_check → wehago_approval</text></g></svg>