<svg viewBox="0 0 120 120" xmlns="http://www.w3.org/2000/svg">
  <style>
    .anim-l {
      animation: slideL 4s infinite cubic-bezier(0.4, 0.0, 0.2, 1);
    }
    .anim-r {
      animation: slideR 4s infinite cubic-bezier(0.4, 0.0, 0.2, 1);
    }
    .sparkle {
      animation: sp 4s infinite cubic-bezier(0.4, 0.0, 0.2, 1);
      transform-origin: 60px 48px;
    }
    @keyframes slideL {
      0%, 15%, 85%, 100% { transform: translateX(0); }
      25%, 35%, 65%, 75% { transform: translateX(11px); }
      45%, 55% { transform: translateX(12px) translateY(1px); }
    }
    @keyframes slideR {
      0%, 15%, 85%, 100% { transform: translateX(0); }
      25%, 35%, 65%, 75% { transform: translateX(-11px); }
      45%, 55% { transform: translateX(-12px) translateY(-1px); }
    }
    @keyframes sp {
      0%, 25%, 45%, 100% { opacity: 0; transform: scale(0) rotate(0deg); }
      30% { opacity: 1; transform: scale(1) rotate(45deg); }
      40% { opacity: 0; transform: scale(0.5) rotate(90deg); }
    }
  </style>

  <!-- Background -->
  <rect width="120" height="120" rx="24" fill="#F0F1F5" />
  <circle cx="60" cy="60" r="42" fill="#FFFFFF" />

  <!-- Layer 1: Left Arm and Palm -->
  <g class="anim-l">
    <!-- Arm -->
    <rect x="-4" y="52" width="34" height="16" rx="3" fill="#1E2249" />
    <!-- Cuff Detail -->
    <rect x="22" y="51" width="4" height="18" rx="1.5" fill="#3D4578" />
    <!-- Palm -->
    <path d="M 26 52 h 16 a 8 8 0 0 1 8 8 v 0 a 8 8 0 0 1 -8 8 h -16 z" fill="#2D3561" stroke="#FFFFFF" stroke-width="1.5" stroke-linejoin="round" />
  </g>

  <!-- Layer 2: Right Arm and Palm -->
  <g class="anim-r">
    <!-- Arm -->
    <rect x="90" y="52" width="34" height="16" rx="3" fill="#A87049" />
    <!-- Cuff Detail -->
    <rect x="94" y="51" width="4" height="18" rx="1.5" fill="#D49B72" />
    <!-- Palm -->
    <path d="M 94 52 h -16 a 8 8 0 0 0 -8 8 v 0 a 8 8 0 0 0 8 8 h 16 z" fill="#C4875B" stroke="#FFFFFF" stroke-width="1.5" stroke-linejoin="round" />
  </g>

  <!-- Layer 3: Left Thumb (Overlaps Right Palm slightly) -->
  <g class="anim-l">
    <rect x="40" y="41" width="10" height="16" rx="5" transform="rotate(35 45 49)" fill="#3D4578" stroke="#FFFFFF" stroke-width="1.5" />
  </g>

  <!-- Layer 4: Right Thumb (Overlaps Left Palm and Thumb) -->
  <g class="anim-r">
    <rect x="70" y="41" width="10" height="16" rx="5" transform="rotate(-35 75 49)" fill="#D49B72" stroke="#FFFFFF" stroke-width="1.5" />
  </g>

  <!-- Meeting Point Sparkle -->
  <path class="sparkle" d="M 60 40 Q 60 48 68 48 Q 60 48 60 56 Q 60 48 52 48 Q 60 48 60 40 Z" fill="#C4875B" />
</svg>