<svg viewBox="0 0 520 683" xmlns="http://www.w3.org/2000/svg">
<style>
  @keyframes fc { 0%{opacity:0} 3%{opacity:1} 84%{opacity:1} 92%{opacity:0} 100%{opacity:0} }
  @keyframes dots { 0%,30%{opacity:0.3} 50%{opacity:1} 100%{opacity:0.3} }
  @keyframes pulse { 0%,100%{opacity:0.5} 50%{opacity:1} }
  .m{opacity:1}
</style>
<rect width="520" height="683" rx="12" fill="#FFFFFF"/>
<rect width="520" height="683" rx="12" fill="none" stroke="#D0D2DC" stroke-width="0.5"/>
<g class="m" style="animation:none;animation-delay:0.4s"><rect x="222.96000000000004" y="20" width="277.03999999999996" height="52" rx="12" fill="#F0F1F5"/><text x="236.96000000000004" y="36" font-size="11" fill="#1E2249" font-family="'Noto Sans KR',sans-serif">반포 재건축 현장 3월 투입용 철근(SD400) 1,500톤</text><text x="236.96000000000004" y="54" font-size="11" fill="#1E2249" font-family="'Noto Sans KR',sans-serif">대한제강으로 발주서 써줘.</text></g><g class="m" style="animation:none;animation-delay:1.6s"><rect x="36" y="86" width="448" height="53" rx="8" fill="#eef0f7" stroke="#c5c9e0" stroke-width="0.5"/><rect x="36" y="86" width="4" height="53" rx="2" fill="#2D3561"/><svg x="50" y="92" width="14" height="14" viewBox="0 0 256 256"><path d="M208,80H176V56a48,48,0,0,0-96,0V80H48A16,16,0,0,0,32,96V208a16,16,0,0,0,16,16H208a16,16,0,0,0,16-16V96A16,16,0,0,0,208,80ZM96,56a32,32,0,0,1,64,0V80H96ZM208,208H48V96H208V208Zm-68-56a12,12,0,1,1-12-12A12,12,0,0,1,140,152Z" fill="#2D3561"/></svg><text x="70" y="102" font-size="10" fill="#2D3561" font-family="'Noto Sans KR',sans-serif" font-weight="600">RBAC 인가 확인</text><rect x="444.8" y="92" width="29.2" height="16" rx="8" fill="#22c55e" opacity="0.15"/><text x="451.8" y="103" font-size="8" fill="#22c55e" font-family="'Geist Mono',monospace" font-weight="600">통과</text><text x="50" y="118" font-size="9" fill="#5A5E7A" font-family="'Geist Mono',monospace">구매조달팀 · Level 4 · 원자재 발주 및 ERP 입력 권한 승인</text></g><g class="m" style="animation:none;animation-delay:2.4s;animation-duration:1.5s;animation-iteration-count:infinite;animation-timing-function:ease"></g><g class="m" style="animation:none;animation-delay:2.4s"><circle cx="32" cy="167" r="12" fill="#2D3561"/><text x="27" y="171" font-size="9" fill="#FFFFFF" font-family="sans-serif" font-weight="700">K</text><circle cx="56" cy="167" r="2.5" fill="#5A5E7A" style="animation:none"/><circle cx="66" cy="167" r="2.5" fill="#5A5E7A" style="animation:none"/><circle cx="76" cy="167" r="2.5" fill="#5A5E7A" style="animation:none"/></g><g class="m" style="animation:none;animation-delay:3.6s"><circle cx="32" cy="167" r="12" fill="#2D3561"/><text x="27" y="171" font-size="9" fill="#FFFFFF" font-family="sans-serif" font-weight="700">K</text><rect x="52" y="153" width="448" height="122" rx="10" fill="#FFFFFF" stroke="#D0D2DC" stroke-width="0.5"/><text x="60" y="169" font-size="11" fill="#1E2249" font-family="'Noto Sans KR',sans-serif">더존 ERP 기준 대한제강 철근(SD400) 현재 단가 ₩880,000/톤 적용하여 발주서를</text><text x="60" y="187" font-size="11" fill="#1E2249" font-family="'Noto Sans KR',sans-serif">작성했습니다.</text><text x="60" y="215" font-size="10" fill="#5A5E7A" font-family="'Noto Sans KR',sans-serif">•</text><text x="74" y="215" font-size="10" fill="#5A5E7A" font-family="'Noto Sans KR',sans-serif">현장명: 반포 래미안 재건축 현장</text><text x="60" y="231" font-size="10" fill="#5A5E7A" font-family="'Noto Sans KR',sans-serif">•</text><text x="74" y="231" font-size="10" fill="#5A5E7A" font-family="'Noto Sans KR',sans-serif">품목: 철근 SD400 1,500톤</text><text x="60" y="247" font-size="10" fill="#5A5E7A" font-family="'Noto Sans KR',sans-serif">•</text><text x="74" y="247" font-size="10" fill="#5A5E7A" font-family="'Noto Sans KR',sans-serif">총액: ₩1,320,000,000 (VAT 별도)</text></g><g class="m" style="animation:none;animation-delay:5.4s"><rect x="171.5900000000001" y="289" width="328.4099999999999" height="34" rx="12" fill="#F0F1F5"/><text x="185.5900000000001" y="305" font-size="11" fill="#1E2249" font-family="'Noto Sans KR',sans-serif">단가 맞네. 현장 소장님 참조 걸고 구매본부장님 결재로 상신해.</text></g><g class="m" style="animation:none;animation-delay:6.6s"><rect x="36" y="337" width="448" height="85" rx="8" fill="#fefce8" stroke="#fef08a" stroke-width="0.5"/><rect x="36" y="337" width="4" height="85" rx="2" fill="#C4875B"/><svg x="50" y="343" width="14" height="14" viewBox="0 0 256 256"><path d="M236.8,188.09,149.35,36.22h0a24.76,24.76,0,0,0-42.7,0L19.2,188.09a23.51,23.51,0,0,0,0,23.72A24.35,24.35,0,0,0,40.55,224h174.9a24.35,24.35,0,0,0,21.33-12.19A23.51,23.51,0,0,0,236.8,188.09ZM222.93,203.8a8.5,8.5,0,0,1-7.48,4.2H40.55a8.5,8.5,0,0,1-7.48-4.2,7.59,7.59,0,0,1,0-7.72L120.52,44.21a8.75,8.75,0,0,1,15,0l87.45,151.87A7.59,7.59,0,0,1,222.93,203.8ZM120,144V104a8,8,0,0,1,16,0v40a8,8,0,0,1-16,0Zm20,36a12,12,0,1,1-12-12A12,12,0,0,1,140,180Z" fill="#C4875B"/></svg><text x="70" y="353" font-size="10" fill="#C4875B" font-family="'Noto Sans KR',sans-serif" font-weight="600">초고액 발주 감지</text><rect x="444.8" y="343" width="29.2" height="16" rx="8" fill="#eab308" opacity="0.15"/><text x="451.8" y="354" font-size="8" fill="#eab308" font-family="'Geist Mono',monospace" font-weight="600">대기</text><text x="50" y="369" font-size="9" fill="#5A5E7A" font-family="'Geist Mono',monospace">10억원 이상 자재 발주 · 구매본부장 및 재무 임원 복수 결재 필요</text><rect x="50" y="388" width="76.69999999999999" height="22" rx="6" fill="#C4875B"/><text x="60" y="402" font-size="9" fill="#FFFFFF" font-family="'Noto Sans KR',sans-serif" font-weight="500">복수 결재 상신</text><rect x="134.7" y="388" width="37.099999999999994" height="22" rx="6" fill="#FFFFFF" stroke="#fef08a" stroke-width="0.5"/><text x="144.7" y="402" font-size="9" fill="#5A5E7A" font-family="'Noto Sans KR',sans-serif">취소</text></g><g class="m" style="animation:none;animation-delay:7.4s"><rect x="402.7" y="434" width="97.3" height="34" rx="12" fill="#F0F1F5"/><text x="416.7" y="450" font-size="11" fill="#1E2249" font-family="'Noto Sans KR',sans-serif">복수 결재 상신</text></g><g class="m" style="animation:none;animation-delay:8.6s"><rect x="36" y="482" width="448" height="53" rx="8" fill="#f5f5f7" stroke="#dddee5" stroke-width="0.5"/><rect x="36" y="482" width="4" height="53" rx="2" fill="#5A5E7A"/><svg x="50" y="488" width="14" height="14" viewBox="0 0 256 256"><path d="M168,152a8,8,0,0,1-8,8H96a8,8,0,0,1,0-16h64A8,8,0,0,1,168,152Zm-8-40H96a8,8,0,0,0,0,16h64a8,8,0,0,0,0-16Zm56-64V216a16,16,0,0,1-16,16H56a16,16,0,0,1-16-16V48A16,16,0,0,1,56,32H92.26a47.92,47.92,0,0,1,71.48,0H200A16,16,0,0,1,216,48ZM96,64h64a32,32,0,0,0-64,0ZM200,48H173.25A47.93,47.93,0,0,1,176,64v8a8,8,0,0,1-8,8H88a8,8,0,0,1-8-8V64a47.93,47.93,0,0,1,2.75-16H56V216H200Z" fill="#5A5E7A"/></svg><text x="70" y="498" font-size="10" fill="#5A5E7A" font-family="'Noto Sans KR',sans-serif" font-weight="600">감사 로그 기록</text><rect x="444.8" y="488" width="29.2" height="16" rx="8" fill="#22c55e" opacity="0.15"/><text x="451.8" y="499" font-size="8" fill="#22c55e" font-family="'Geist Mono',monospace" font-weight="600">통과</text><text x="50" y="514" font-size="9" fill="#5A5E7A" font-family="'Geist Mono',monospace">PO-2026-0225-112 · 초고액 발주 위하고 결재 상신 · Hash: 98a1...</text></g><g class="m" style="animation:none;animation-delay:9.4s;animation-duration:1.5s;animation-iteration-count:infinite;animation-timing-function:ease"></g><g class="m" style="animation:none;animation-delay:9.4s"><circle cx="32" cy="563" r="12" fill="#2D3561"/><text x="27" y="567" font-size="9" fill="#FFFFFF" font-family="sans-serif" font-weight="700">K</text><circle cx="56" cy="563" r="2.5" fill="#5A5E7A" style="animation:none"/><circle cx="66" cy="563" r="2.5" fill="#5A5E7A" style="animation:none"/><circle cx="76" cy="563" r="2.5" fill="#5A5E7A" style="animation:none"/></g><g class="m" style="animation:none;animation-delay:10.6s"><circle cx="32" cy="563" r="12" fill="#2D3561"/><text x="27" y="567" font-size="9" fill="#FFFFFF" font-family="sans-serif" font-weight="700">K</text><rect x="52" y="549" width="448" height="64" rx="10" fill="#FFFFFF" stroke="#D0D2DC" stroke-width="0.5"/><text x="60" y="565" font-size="11" fill="#1E2249" font-family="'Noto Sans KR',sans-serif">발주서가 생성되어 구매본부장 및 재무본부장님의 복수 결재로 상신되었습니다.</text><text x="60" y="583" font-size="11" fill="#1E2249" font-family="'Noto Sans KR',sans-serif">반포 현장 소장님께는 위하고 메신저로 참조 알림이 발송되었습니다.</text></g><g class="m" style="animation:none;animation-delay:12.9s"><rect x="20" y="631" width="480" height="32" rx="6" fill="#F0F1F5"/><text x="32" y="651" font-size="8" fill="#5A5E7A" font-family="'Geist Mono',monospace">erp_price_lookup → generate_po → wehago_approval</text></g></svg>