<svg viewBox="0 0 520 643" xmlns="http://www.w3.org/2000/svg">
<style>
  @keyframes fc { 0%{opacity:0} 3%{opacity:1} 84%{opacity:1} 92%{opacity:0} 100%{opacity:0} }
  @keyframes dots { 0%,30%{opacity:0.3} 50%{opacity:1} 100%{opacity:0.3} }
  @keyframes pulse { 0%,100%{opacity:0.5} 50%{opacity:1} }
  .m{opacity:1}
</style>
<rect width="520" height="643" rx="12" fill="#FFFFFF"/>
<rect width="520" height="643" rx="12" fill="none" stroke="#D0D2DC" stroke-width="0.5"/>
<g class="m" style="animation:none;animation-delay:0.4s"><rect x="186.11000000000007" y="20" width="313.88999999999993" height="52" rx="12" fill="#F0F1F5"/><text x="200.11000000000007" y="36" font-size="11" fill="#1E2249" font-family="'Noto Sans KR',sans-serif">올해 거래 계약 갱신된 종합병원 30곳 리스트 뽑아서, 병원장</text><text x="200.11000000000007" y="54" font-size="11" fill="#1E2249" font-family="'Noto Sans KR',sans-serif">명의로 리베이트 방지(CP) 서약서 이메일 발송 준비해줘.</text></g><g class="m" style="animation:none;animation-delay:1.6s"><rect x="36" y="86" width="448" height="53" rx="8" fill="#eef0f7" stroke="#c5c9e0" stroke-width="0.5"/><rect x="36" y="86" width="4" height="53" rx="2" fill="#2D3561"/><svg x="50" y="92" width="14" height="14" viewBox="0 0 256 256"><path d="M208,80H176V56a48,48,0,0,0-96,0V80H48A16,16,0,0,0,32,96V208a16,16,0,0,0,16,16H208a16,16,0,0,0,16-16V96A16,16,0,0,0,208,80ZM96,56a32,32,0,0,1,64,0V80H96ZM208,208H48V96H208V208Zm-68-56a12,12,0,1,1-12-12A12,12,0,0,1,140,152Z" fill="#2D3561"/></svg><text x="70" y="102" font-size="10" fill="#2D3561" font-family="'Noto Sans KR',sans-serif" font-weight="600">RBAC 인가 확인</text><rect x="444.8" y="92" width="29.2" height="16" rx="8" fill="#22c55e" opacity="0.15"/><text x="451.8" y="103" font-size="8" fill="#22c55e" font-family="'Geist Mono',monospace" font-weight="600">통과</text><text x="50" y="118" font-size="9" fill="#5A5E7A" font-family="'Geist Mono',monospace">영업기획팀 · Level 4 · 거래처 마스터 조회 및 대외 공문 발송 승인</text></g><g class="m" style="animation:none;animation-delay:2.4s;animation-duration:1.5s;animation-iteration-count:infinite;animation-timing-function:ease"></g><g class="m" style="animation:none;animation-delay:2.4s"><circle cx="32" cy="167" r="12" fill="#2D3561"/><text x="27" y="171" font-size="9" fill="#FFFFFF" font-family="sans-serif" font-weight="700">K</text><circle cx="56" cy="167" r="2.5" fill="#5A5E7A" style="animation:none"/><circle cx="66" cy="167" r="2.5" fill="#5A5E7A" style="animation:none"/><circle cx="76" cy="167" r="2.5" fill="#5A5E7A" style="animation:none"/></g><g class="m" style="animation:none;animation-delay:3.6s"><circle cx="32" cy="167" r="12" fill="#2D3561"/><text x="27" y="171" font-size="9" fill="#FFFFFF" font-family="sans-serif" font-weight="700">K</text><rect x="52" y="153" width="448" height="82" rx="10" fill="#FFFFFF" stroke="#D0D2DC" stroke-width="0.5"/><text x="60" y="169" font-size="11" fill="#1E2249" font-family="'Noto Sans KR',sans-serif">더존 ERP에서 올해 갱신된 종합병원 30곳의 목록 및 이메일 연락처를 확인했습니다.</text><text x="60" y="187" font-size="11" fill="#1E2249" font-family="'Noto Sans KR',sans-serif">표준 CP 준수 서약서 양식(PDF)에 각 병원명을 병합하여 30건의 이메일 초안을</text><text x="60" y="205" font-size="11" fill="#1E2249" font-family="'Noto Sans KR',sans-serif">준비했습니다.</text></g><g class="m" style="animation:none;animation-delay:5.4s"><rect x="296.44000000000005" y="249" width="203.55999999999997" height="34" rx="12" fill="#F0F1F5"/><text x="310.44000000000005" y="265" font-size="11" fill="#1E2249" font-family="'Noto Sans KR',sans-serif">확인했어. 일괄 발송 승인 요청 올려.</text></g><g class="m" style="animation:none;animation-delay:6.6s"><rect x="36" y="297" width="448" height="85" rx="8" fill="#fefce8" stroke="#fef08a" stroke-width="0.5"/><rect x="36" y="297" width="4" height="85" rx="2" fill="#C4875B"/><svg x="50" y="303" width="14" height="14" viewBox="0 0 256 256"><path d="M236.8,188.09,149.35,36.22h0a24.76,24.76,0,0,0-42.7,0L19.2,188.09a23.51,23.51,0,0,0,0,23.72A24.35,24.35,0,0,0,40.55,224h174.9a24.35,24.35,0,0,0,21.33-12.19A23.51,23.51,0,0,0,236.8,188.09ZM222.93,203.8a8.5,8.5,0,0,1-7.48,4.2H40.55a8.5,8.5,0,0,1-7.48-4.2,7.59,7.59,0,0,1,0-7.72L120.52,44.21a8.75,8.75,0,0,1,15,0l87.45,151.87A7.59,7.59,0,0,1,222.93,203.8ZM120,144V104a8,8,0,0,1,16,0v40a8,8,0,0,1-16,0Zm20,36a12,12,0,1,1-12-12A12,12,0,0,1,140,180Z" fill="#C4875B"/></svg><text x="70" y="313" font-size="10" fill="#C4875B" font-family="'Noto Sans KR',sans-serif" font-weight="600">대외 공문 일괄 발송</text><rect x="444.8" y="303" width="29.2" height="16" rx="8" fill="#eab308" opacity="0.15"/><text x="451.8" y="314" font-size="8" fill="#eab308" font-family="'Geist Mono',monospace" font-weight="600">대기</text><text x="50" y="329" font-size="9" fill="#5A5E7A" font-family="'Geist Mono',monospace">대외기관(병원) 대상 법적 서약서 30건 일괄 발송 · 컴플라이언스 팀장 승인 필요</text><rect x="50" y="348" width="76.69999999999999" height="22" rx="6" fill="#C4875B"/><text x="60" y="362" font-size="9" fill="#FFFFFF" font-family="'Noto Sans KR',sans-serif" font-weight="500">발송 승인 요청</text><rect x="134.7" y="348" width="37.099999999999994" height="22" rx="6" fill="#FFFFFF" stroke="#fef08a" stroke-width="0.5"/><text x="144.7" y="362" font-size="9" fill="#5A5E7A" font-family="'Noto Sans KR',sans-serif">취소</text></g><g class="m" style="animation:none;animation-delay:7.4s"><rect x="402.7" y="394" width="97.3" height="34" rx="12" fill="#F0F1F5"/><text x="416.7" y="410" font-size="11" fill="#1E2249" font-family="'Noto Sans KR',sans-serif">발송 승인 요청</text></g><g class="m" style="animation:none;animation-delay:8.6s"><rect x="36" y="442" width="448" height="53" rx="8" fill="#f5f5f7" stroke="#dddee5" stroke-width="0.5"/><rect x="36" y="442" width="4" height="53" rx="2" fill="#5A5E7A"/><svg x="50" y="448" width="14" height="14" viewBox="0 0 256 256"><path d="M168,152a8,8,0,0,1-8,8H96a8,8,0,0,1,0-16h64A8,8,0,0,1,168,152Zm-8-40H96a8,8,0,0,0,0,16h64a8,8,0,0,0,0-16Zm56-64V216a16,16,0,0,1-16,16H56a16,16,0,0,1-16-16V48A16,16,0,0,1,56,32H92.26a47.92,47.92,0,0,1,71.48,0H200A16,16,0,0,1,216,48ZM96,64h64a32,32,0,0,0-64,0ZM200,48H173.25A47.93,47.93,0,0,1,176,64v8a8,8,0,0,1-8,8H88a8,8,0,0,1-8-8V64a47.93,47.93,0,0,1,2.75-16H56V216H200Z" fill="#5A5E7A"/></svg><text x="70" y="458" font-size="10" fill="#5A5E7A" font-family="'Noto Sans KR',sans-serif" font-weight="600">감사 로그 기록</text><rect x="444.8" y="448" width="29.2" height="16" rx="8" fill="#22c55e" opacity="0.15"/><text x="451.8" y="459" font-size="8" fill="#22c55e" font-family="'Geist Mono',monospace" font-weight="600">통과</text><text x="50" y="474" font-size="9" fill="#5A5E7A" font-family="'Geist Mono',monospace">CP-2026-0225-099 · 컴플라이언스 서약서 외부 이메일 발송 승인 대기</text></g><g class="m" style="animation:none;animation-delay:9.4s;animation-duration:1.5s;animation-iteration-count:infinite;animation-timing-function:ease"></g><g class="m" style="animation:none;animation-delay:9.4s"><circle cx="32" cy="523" r="12" fill="#2D3561"/><text x="27" y="527" font-size="9" fill="#FFFFFF" font-family="sans-serif" font-weight="700">K</text><circle cx="56" cy="523" r="2.5" fill="#5A5E7A" style="animation:none"/><circle cx="66" cy="523" r="2.5" fill="#5A5E7A" style="animation:none"/><circle cx="76" cy="523" r="2.5" fill="#5A5E7A" style="animation:none"/></g><g class="m" style="animation:none;animation-delay:10.6s"><circle cx="32" cy="523" r="12" fill="#2D3561"/><text x="27" y="527" font-size="9" fill="#FFFFFF" font-family="sans-serif" font-weight="700">K</text><rect x="52" y="509" width="448" height="64" rx="10" fill="#FFFFFF" stroke="#D0D2DC" stroke-width="0.5"/><text x="60" y="525" font-size="11" fill="#1E2249" font-family="'Noto Sans KR',sans-serif">컴플라이언스 팀장님께 발송 승인 요청을 위하고 결재로 올렸습니다.</text><text x="60" y="543" font-size="11" fill="#1E2249" font-family="'Noto Sans KR',sans-serif">승인이 완료되는 즉시 30곳의 종합병원으로 서약서 이메일이 일괄 발송됩니다.</text></g><g class="m" style="animation:none;animation-delay:12.9s"><rect x="20" y="591" width="480" height="32" rx="6" fill="#F0F1F5"/><text x="32" y="611" font-size="8" fill="#5A5E7A" font-family="'Geist Mono',monospace">erp_account_query → generate_pdf_batch → gmail_batch_draft → wehago_approval</text></g></svg>