<svg viewBox="0 0 520 611" xmlns="http://www.w3.org/2000/svg">
<style>
  @keyframes fc { 0%{opacity:0} 3%{opacity:1} 83%{opacity:1} 91%{opacity:0} 100%{opacity:0} }
  @keyframes dots { 0%,30%{opacity:0.3} 50%{opacity:1} 100%{opacity:0.3} }
  @keyframes pulse { 0%,100%{opacity:0.5} 50%{opacity:1} }
  .m{opacity:1}
</style>
<rect width="520" height="611" rx="12" fill="#FFFFFF"/>
<rect width="520" height="611" rx="12" fill="none" stroke="#D0D2DC" stroke-width="0.5"/>
<g class="m" style="animation:none;animation-delay:0.4s"><rect x="163.4500000000001" y="20" width="336.5499999999999" height="52" rx="12" fill="#F0F1F5"/><text x="177.4500000000001" y="36" font-size="11" fill="#1E2249" font-family="'Noto Sans KR',sans-serif">어제 제주도에서 열린 학술 심포지엄 참석자 명단 엑셀로 정리해서</text><text x="177.4500000000001" y="54" font-size="11" fill="#1E2249" font-family="'Noto Sans KR',sans-serif">올려. 식대 정산해야 돼.</text></g><g class="m" style="animation:none;animation-delay:1.6s"><rect x="36" y="86" width="448" height="53" rx="8" fill="#fef7f0" stroke="#f0d5bc" stroke-width="0.5"/><rect x="36" y="86" width="4" height="53" rx="2" fill="#C4875B"/><svg x="50" y="92" width="14" height="14" viewBox="0 0 256 256"><path d="M208,40H48A16,16,0,0,0,32,56v56c0,52.72,25.52,84.67,46.93,102.19,23.06,18.86,46,25.26,47,25.53a8,8,0,0,0,4.2,0c1-.27,23.91-6.67,47-25.53C198.48,196.67,224,164.72,224,112V56A16,16,0,0,0,208,40Zm0,72c0,37.07-13.66,67.16-40.6,89.42A129.3,129.3,0,0,1,128,223.62a128.25,128.25,0,0,1-38.92-21.81C61.82,179.51,48,149.3,48,112l0-56,160,0ZM82.34,141.66a8,8,0,0,1,11.32-11.32L112,148.69l50.34-50.35a8,8,0,0,1,11.32,11.32l-56,56a8,8,0,0,1-11.32,0Z" fill="#C4875B"/></svg><text x="70" y="102" font-size="10" fill="#C4875B" font-family="'Noto Sans KR',sans-serif" font-weight="600">개인/의료인 정보 감지</text><rect x="437.2" y="92" width="36.8" height="16" rx="8" fill="#C4875B" opacity="0.15"/><text x="444.2" y="103" font-size="8" fill="#C4875B" font-family="'Geist Mono',monospace" font-weight="600">마스킹</text><text x="50" y="118" font-size="9" fill="#5A5E7A" font-family="'Geist Mono',monospace">의사 면허번호, 휴대폰 번호 마스킹 처리</text></g><g class="m" style="animation:none;animation-delay:2.4s;animation-duration:1.5s;animation-iteration-count:infinite;animation-timing-function:ease"></g><g class="m" style="animation:none;animation-delay:2.4s"><circle cx="32" cy="167" r="12" fill="#2D3561"/><text x="27" y="171" font-size="9" fill="#FFFFFF" font-family="sans-serif" font-weight="700">K</text><circle cx="56" cy="167" r="2.5" fill="#5A5E7A" style="animation:none"/><circle cx="66" cy="167" r="2.5" fill="#5A5E7A" style="animation:none"/><circle cx="76" cy="167" r="2.5" fill="#5A5E7A" style="animation:none"/></g><g class="m" style="animation:none;animation-delay:3.6s"><circle cx="32" cy="167" r="12" fill="#2D3561"/><text x="27" y="171" font-size="9" fill="#FFFFFF" font-family="sans-serif" font-weight="700">K</text><rect x="52" y="153" width="448" height="128" rx="10" fill="#FFFFFF" stroke="#D0D2DC" stroke-width="0.5"/><text x="60" y="169" font-size="11" fill="#1E2249" font-family="'Noto Sans KR',sans-serif">참석자 명단 엑셀 파일을 정리했습니다. 의료인 개인정보는 안전하게 마스킹 되었습니다.</text><rect x="58" y="185" width="428" height="16" rx="2" fill="#F0F1F5"/><text x="60" y="197" font-size="9.5" fill="#1E2249" font-family="'Geist Mono',monospace" font-weight="600">소속 병원</text><text x="166" y="197" font-size="9.5" fill="#1E2249" font-family="'Geist Mono',monospace" font-weight="600">성명</text><text x="272" y="197" font-size="9.5" fill="#1E2249" font-family="'Geist Mono',monospace" font-weight="600">면허번호</text><text x="378" y="197" font-size="9.5" fill="#1E2249" font-family="'Geist Mono',monospace" font-weight="600">휴대폰번호</text><line x1="60" y1="213" x2="484" y2="213" stroke="#D0D2DC" stroke-width="0.5"/><text x="60" y="219" font-size="9.5" fill="#5A5E7A" font-family="'Geist Mono',monospace" >서울대병원</text><text x="166" y="219" font-size="9.5" fill="#5A5E7A" font-family="'Geist Mono',monospace" >김** 교수</text><text x="272" y="219" font-size="9.5" fill="#5A5E7A" font-family="'Geist Mono',monospace" >12***</text><text x="378" y="219" font-size="9.5" fill="#5A5E7A" font-family="'Noto Sans KR',sans-serif">010--1122</text><text x="60" y="235" font-size="9.5" fill="#5A5E7A" font-family="'Geist Mono',monospace" >세브란스병원</text><text x="166" y="235" font-size="9.5" fill="#5A5E7A" font-family="'Geist Mono',monospace" >이** 과장</text><text x="272" y="235" font-size="9.5" fill="#5A5E7A" font-family="'Geist Mono',monospace" >14***</text><text x="378" y="235" font-size="9.5" fill="#5A5E7A" font-family="'Noto Sans KR',sans-serif">010--3344</text><text x="60" y="251" font-size="11" fill="#1E2249" font-family="'Noto Sans KR',sans-serif">총 45명</text></g><g class="m" style="animation:none;animation-delay:5.4s"><rect x="161.91000000000014" y="295" width="338.08999999999986" height="34" rx="12" fill="#F0F1F5"/><text x="175.91000000000014" y="311" font-size="11" fill="#1E2249" font-family="'Noto Sans KR',sans-serif">이 명단 기준으로 인당 10만원씩 식대 정산 품의서 더존에 입력해.</text></g><g class="m" style="animation:none;animation-delay:6.6s"><rect x="36" y="343" width="448" height="53" rx="8" fill="#f0fdf4" stroke="#bbf7d0" stroke-width="0.5"/><rect x="36" y="343" width="4" height="53" rx="2" fill="#22c55e"/><svg x="50" y="349" width="14" height="14" viewBox="0 0 256 256"><path d="M173.66,98.34a8,8,0,0,1,0,11.32l-56,56a8,8,0,0,1-11.32,0l-24-24a8,8,0,0,1,11.32-11.32L112,148.69l50.34-50.35A8,8,0,0,1,173.66,98.34ZM232,128A104,104,0,1,1,128,24,104.11,104.11,0,0,1,232,128Zm-16,0a88,88,0,1,0-88,88A88.1,88.1,0,0,0,216,128Z" fill="#22c55e"/></svg><text x="70" y="359" font-size="10" fill="#22c55e" font-family="'Noto Sans KR',sans-serif" font-weight="600">데이터 무결성 검증</text><rect x="444.8" y="349" width="29.2" height="16" rx="8" fill="#22c55e" opacity="0.15"/><text x="451.8" y="360" font-size="8" fill="#22c55e" font-family="'Geist Mono',monospace" font-weight="600">통과</text><text x="50" y="375" font-size="9" fill="#5A5E7A" font-family="'Geist Mono',monospace">김영란법(청탁금지법) 한도 확인 · 심포지엄 식대 규정(10만원 이하) 통과</text></g><g class="m" style="animation:none;animation-delay:7.4s"><rect x="36" y="410" width="448" height="53" rx="8" fill="#f5f5f7" stroke="#dddee5" stroke-width="0.5"/><rect x="36" y="410" width="4" height="53" rx="2" fill="#5A5E7A"/><svg x="50" y="416" width="14" height="14" viewBox="0 0 256 256"><path d="M168,152a8,8,0,0,1-8,8H96a8,8,0,0,1,0-16h64A8,8,0,0,1,168,152Zm-8-40H96a8,8,0,0,0,0,16h64a8,8,0,0,0,0-16Zm56-64V216a16,16,0,0,1-16,16H56a16,16,0,0,1-16-16V48A16,16,0,0,1,56,32H92.26a47.92,47.92,0,0,1,71.48,0H200A16,16,0,0,1,216,48ZM96,64h64a32,32,0,0,0-64,0ZM200,48H173.25A47.93,47.93,0,0,1,176,64v8a8,8,0,0,1-8,8H88a8,8,0,0,1-8-8V64a47.93,47.93,0,0,1,2.75-16H56V216H200Z" fill="#5A5E7A"/></svg><text x="70" y="426" font-size="10" fill="#5A5E7A" font-family="'Noto Sans KR',sans-serif" font-weight="600">감사 로그 기록</text><rect x="444.8" y="416" width="29.2" height="16" rx="8" fill="#22c55e" opacity="0.15"/><text x="451.8" y="427" font-size="8" fill="#22c55e" font-family="'Geist Mono',monospace" font-weight="600">통과</text><text x="50" y="442" font-size="9" fill="#5A5E7A" font-family="'Geist Mono',monospace">MKT-2026-0225-062 · 심포지엄 경비 정산 전표 생성</text></g><g class="m" style="animation:none;animation-delay:8.2s;animation-duration:1.5s;animation-iteration-count:infinite;animation-timing-function:ease"></g><g class="m" style="animation:none;animation-delay:8.2s"><circle cx="32" cy="491" r="12" fill="#2D3561"/><text x="27" y="495" font-size="9" fill="#FFFFFF" font-family="sans-serif" font-weight="700">K</text><circle cx="56" cy="491" r="2.5" fill="#5A5E7A" style="animation:none"/><circle cx="66" cy="491" r="2.5" fill="#5A5E7A" style="animation:none"/><circle cx="76" cy="491" r="2.5" fill="#5A5E7A" style="animation:none"/></g><g class="m" style="animation:none;animation-delay:9.4s"><circle cx="32" cy="491" r="12" fill="#2D3561"/><text x="27" y="495" font-size="9" fill="#FFFFFF" font-family="sans-serif" font-weight="700">K</text><rect x="52" y="477" width="448" height="64" rx="10" fill="#FFFFFF" stroke="#D0D2DC" stroke-width="0.5"/><text x="60" y="493" font-size="11" fill="#1E2249" font-family="'Noto Sans KR',sans-serif">청탁금지법 규정 한도 내역임을 검증 완료했습니다.</text><text x="60" y="511" font-size="11" fill="#1E2249" font-family="'Noto Sans KR',sans-serif">총 45명, 식대 ₩4,500,000에 대한 경비 정산 전표를 더존 ERP에 생성했습니다.</text></g><g class="m" style="animation:none;animation-delay:11.7s"><rect x="20" y="559" width="480" height="32" rx="6" fill="#F0F1F5"/><text x="32" y="579" font-size="8" fill="#5A5E7A" font-family="'Geist Mono',monospace">parse_excel → pii_filter → compliance_check → erp_expense_draft</text></g></svg>