<svg viewBox="0 0 520 604" xmlns="http://www.w3.org/2000/svg">
<style>
  @keyframes fc { 0%{opacity:0} 3%{opacity:1} 82%{opacity:1} 90%{opacity:0} 100%{opacity:0} }
  @keyframes dots { 0%,30%{opacity:0.3} 50%{opacity:1} 100%{opacity:0.3} }
  @keyframes pulse { 0%,100%{opacity:0.5} 50%{opacity:1} }
  .m{opacity:0}
</style>
<rect width="520" height="604" rx="12" fill="#FFFFFF"/>
<rect width="520" height="604" rx="12" fill="none" stroke="#D0D2DC" stroke-width="0.5"/>
<g class="m" style="animation:fc 16.4s infinite;animation-delay:0.4s"><rect x="174.67000000000007" y="20" width="325.3299999999999" height="52" rx="12" fill="#F0F1F5"/><text x="188.67000000000007" y="36" font-size="11" fill="#1E2249" font-family="'Noto Sans KR',sans-serif">어제 출시된 K손보사 반려견 보험 상품 뉴스랑 공시 자료 웹에서</text><text x="188.67000000000007" y="54" font-size="11" fill="#1E2249" font-family="'Noto Sans KR',sans-serif">검색해서 우리 회사 펫보험이랑 보장 내역 비교해줘.</text></g><g class="m" style="animation:fc 16.4s infinite;animation-delay:1.6s"><rect x="36" y="86" width="448" height="53" rx="8" fill="#eef0f7" stroke="#c5c9e0" stroke-width="0.5"/><rect x="36" y="86" width="4" height="53" rx="2" fill="#2D3561"/><svg x="50" y="92" width="14" height="14" viewBox="0 0 256 256"><path d="M208,80H176V56a48,48,0,0,0-96,0V80H48A16,16,0,0,0,32,96V208a16,16,0,0,0,16,16H208a16,16,0,0,0,16-16V96A16,16,0,0,0,208,80ZM96,56a32,32,0,0,1,64,0V80H96ZM208,208H48V96H208V208Zm-68-56a12,12,0,1,1-12-12A12,12,0,0,1,140,152Z" fill="#2D3561"/></svg><text x="70" y="102" font-size="10" fill="#2D3561" font-family="'Noto Sans KR',sans-serif" font-weight="600">RBAC 인가 확인</text><rect x="444.8" y="92" width="29.2" height="16" rx="8" fill="#22c55e" opacity="0.15"/><text x="451.8" y="103" font-size="8" fill="#22c55e" font-family="'Geist Mono',monospace" font-weight="600">통과</text><text x="50" y="118" font-size="9" fill="#5A5E7A" font-family="'Geist Mono',monospace">상품기획팀 · Level 3 · 외부 데이터 수집 및 내부 상품 비교 승인</text></g><g class="m" style="animation:fc 1.5s infinite 16.4s;animation-delay:2.4s;animation-duration:1.5s;animation-iteration-count:infinite;animation-timing-function:ease"></g><g class="m" style="animation:fc 16.4s infinite;animation-delay:2.4s"><circle cx="32" cy="167" r="12" fill="#2D3561"/><text x="27" y="171" font-size="9" fill="#FFFFFF" font-family="sans-serif" font-weight="700">K</text><circle cx="56" cy="167" r="2.5" fill="#5A5E7A" style="animation:dots 0.8s infinite"/><circle cx="66" cy="167" r="2.5" fill="#5A5E7A" style="animation:dots 0.8s 0.15s infinite"/><circle cx="76" cy="167" r="2.5" fill="#5A5E7A" style="animation:dots 0.8s 0.3s infinite"/></g><g class="m" style="animation:fc 16.4s infinite;animation-delay:3.6s"><circle cx="32" cy="167" r="12" fill="#2D3561"/><text x="27" y="171" font-size="9" fill="#FFFFFF" font-family="sans-serif" font-weight="700">K</text><rect x="52" y="153" width="448" height="126" rx="10" fill="#FFFFFF" stroke="#D0D2DC" stroke-width="0.5"/><text x="60" y="169" font-size="11" fill="#1E2249" font-family="'Noto Sans KR',sans-serif">웹 검색 및 내부 상품 데이터베이스를 대조하여 비교 분석을 완료했습니다.</text><rect x="58" y="185" width="428" height="16" rx="2" fill="#F0F1F5"/><text x="60" y="197" font-size="9.5" fill="#1E2249" font-family="'Geist Mono',monospace" font-weight="600">구분</text><text x="166" y="197" font-size="9.5" fill="#1E2249" font-family="'Geist Mono',monospace" font-weight="600">자사 (펫사랑)</text><text x="272" y="197" font-size="9.5" fill="#1E2249" font-family="'Geist Mono',monospace" font-weight="600">K손보 (멍멍케어)</text><text x="378" y="197" font-size="9.5" fill="#1E2249" font-family="'Geist Mono',monospace" font-weight="600">우위 분석</text><line x1="60" y1="213" x2="484" y2="213" stroke="#D0D2DC" stroke-width="0.5"/><text x="60" y="219" font-size="9.5" fill="#5A5E7A" font-family="'Geist Mono',monospace" >슬개골 탈구</text><text x="166" y="219" font-size="9.5" fill="#5A5E7A" font-family="'Geist Mono',monospace" >가입 1년 후 50%</text><text x="272" y="219" font-size="9.5" fill="#5A5E7A" font-family="'Geist Mono',monospace" >가입 6개월 후 80%</text><text x="378" y="219" font-size="9.5" fill="#5A5E7A" font-family="'Noto Sans KR',sans-serif"><tspan font-weight="600">K손보 우위</tspan></text><text x="60" y="235" font-size="9.5" fill="#5A5E7A" font-family="'Geist Mono',monospace" >MRI 보장</text><text x="166" y="235" font-size="9.5" fill="#5A5E7A" font-family="'Geist Mono',monospace" >연 1회 (최대 50만)</text><text x="272" y="235" font-size="9.5" fill="#5A5E7A" font-family="'Geist Mono',monospace" >연 2회 (최대 100만)</text><text x="378" y="235" font-size="9.5" fill="#5A5E7A" font-family="'Noto Sans KR',sans-serif"><tspan font-weight="600">K손보 우위</tspan></text><text x="60" y="251" font-size="9.5" fill="#5A5E7A" font-family="'Geist Mono',monospace" >월 보험료</text><text x="166" y="251" font-size="9.5" fill="#5A5E7A" font-family="'Geist Mono',monospace" >₩35,000</text><text x="272" y="251" font-size="9.5" fill="#5A5E7A" font-family="'Geist Mono',monospace" >₩48,000</text><text x="378" y="251" font-size="9.5" fill="#5A5E7A" font-family="'Noto Sans KR',sans-serif"><tspan font-weight="600">자사 우위 (가격경쟁력)</tspan></text></g><g class="m" style="animation:fc 16.4s infinite;animation-delay:5.4s"><rect x="209.32000000000005" y="293" width="290.67999999999995" height="52" rx="12" fill="#F0F1F5"/><text x="223.32000000000005" y="309" font-size="11" fill="#1E2249" font-family="'Noto Sans KR',sans-serif">우리 보장이 많이 밀리네. 이 표 포함해서 경영진 보고용</text><text x="223.32000000000005" y="327" font-size="11" fill="#1E2249" font-family="'Noto Sans KR',sans-serif">파워포인트 3장짜리로 만들어줘.</text></g><g class="m" style="animation:fc 16.4s infinite;animation-delay:6.6s"><rect x="36" y="359" width="448" height="53" rx="8" fill="#f5f5f7" stroke="#dddee5" stroke-width="0.5"/><rect x="36" y="359" width="4" height="53" rx="2" fill="#5A5E7A"/><svg x="50" y="365" width="14" height="14" viewBox="0 0 256 256"><path d="M168,152a8,8,0,0,1-8,8H96a8,8,0,0,1,0-16h64A8,8,0,0,1,168,152Zm-8-40H96a8,8,0,0,0,0,16h64a8,8,0,0,0,0-16Zm56-64V216a16,16,0,0,1-16,16H56a16,16,0,0,1-16-16V48A16,16,0,0,1,56,32H92.26a47.92,47.92,0,0,1,71.48,0H200A16,16,0,0,1,216,48ZM96,64h64a32,32,0,0,0-64,0ZM200,48H173.25A47.93,47.93,0,0,1,176,64v8a8,8,0,0,1-8,8H88a8,8,0,0,1-8-8V64a47.93,47.93,0,0,1,2.75-16H56V216H200Z" fill="#5A5E7A"/></svg><text x="70" y="375" font-size="10" fill="#5A5E7A" font-family="'Noto Sans KR',sans-serif" font-weight="600">감사 로그 기록</text><rect x="444.8" y="365" width="29.2" height="16" rx="8" fill="#22c55e" opacity="0.15"/><text x="451.8" y="376" font-size="8" fill="#22c55e" font-family="'Geist Mono',monospace" font-weight="600">통과</text><text x="50" y="391" font-size="9" fill="#5A5E7A" font-family="'Geist Mono',monospace">PPT-2026-0225-019 · 내부 정보 결합 문서 생성 · Hash: d8f2...</text></g><g class="m" style="animation:fc 1.5s infinite 16.4s;animation-delay:7.4s;animation-duration:1.5s;animation-iteration-count:infinite;animation-timing-function:ease"></g><g class="m" style="animation:fc 16.4s infinite;animation-delay:7.4s"><circle cx="32" cy="440" r="12" fill="#2D3561"/><text x="27" y="444" font-size="9" fill="#FFFFFF" font-family="sans-serif" font-weight="700">K</text><circle cx="56" cy="440" r="2.5" fill="#5A5E7A" style="animation:dots 0.8s infinite"/><circle cx="66" cy="440" r="2.5" fill="#5A5E7A" style="animation:dots 0.8s 0.15s infinite"/><circle cx="76" cy="440" r="2.5" fill="#5A5E7A" style="animation:dots 0.8s 0.3s infinite"/></g><g class="m" style="animation:fc 16.4s infinite;animation-delay:8.6s"><circle cx="32" cy="440" r="12" fill="#2D3561"/><text x="27" y="444" font-size="9" fill="#FFFFFF" font-family="sans-serif" font-weight="700">K</text><rect x="52" y="426" width="448" height="108" rx="10" fill="#FFFFFF" stroke="#D0D2DC" stroke-width="0.5"/><text x="60" y="442" font-size="11" fill="#1E2249" font-family="'Noto Sans KR',sans-serif">경영진 보고용 파워포인트(PPTX) 파일이 생성되었습니다. 자사 상품의 경쟁력 강화 제언</text><text x="60" y="460" font-size="11" fill="#1E2249" font-family="'Noto Sans KR',sans-serif">페이지를 추가했습니다.</text><rect x="60" y="486" width="218.20000000000005" height="28" rx="6" fill="#F0F1F5" stroke="#D0D2DC" stroke-width="0.5"/><rect x="68" y="490" width="18" height="18" rx="3" fill="#2D3561"/><text x="77" y="502" font-size="5.5" fill="#FFFFFF" font-family="sans-serif" font-weight="700" text-anchor="middle">PPT</text><text x="92" y="502" font-size="10" fill="#1E2249" font-family="'Noto Sans KR',sans-serif" font-weight="500">K손보_펫보험_경쟁사분석_보고.pptx</text></g><g class="m" style="animation:fc 16.4s infinite;animation-delay:10.9s"><rect x="20" y="552" width="480" height="32" rx="6" fill="#F0F1F5"/><text x="32" y="572" font-size="8" fill="#5A5E7A" font-family="'Geist Mono',monospace">web_search → erp_product_lookup → generate_ppt</text></g></svg>